<svg height="512" viewBox="0 0 512 512" width="512" xmlns="http://www.w3.org/2000/svg" xmlns:xlink="http://www.w3.org/1999/xlink"><clipPath id="clip-path"><path d="m175.17 174.57h52.76v115.02h-52.76z"/></clipPath><clipPath id="clip-path-2"><path d="m302 418.85c-17.52-19.61-25.65-43.56-22.89-67.43l9.37-81.08c35.78 4.14 67.84-7.85 87.89-18.2 14.11 17.61 38.53 41.61 72.9 52.37l-26.7 85.18c-5.7 18.21-19.57 33-39 41.76l-50.18 22.47z"/></clipPath><g id="Cat_Insurance" data-name="Cat Insurance"><g clip-path="url(#clip-path)"><path d="m175.17 174.57h52.76v115.02h-52.76z" fill="#834a27"/><path d="m166.87 230.11a60.16 60.16 0 0 0 69.13-1.19q-.25-15.78-.5-31.56h-67.64z" fill="#6e3d1e"/></g><path d="m232.94 252.25s57.9 6.4 71.87 33.43 85.87 152.32 62.13 173.81-56.85 9.95-97.54-92.86z" fill="#86ebf9"/><path d="m269.4 116.08s-1.18-57-41.55-71.43c-.37-.07-.72-.1-1.08-.16-26.61-10.24-46-.17-47.73.16a50.8 50.8 0 0 0 -17.63 10.81c-23.11 21.64-23.94 60.61-23.94 60.61a43.42 43.42 0 0 0 -.32 6.62c.36 10.87 6.91 36.14 8.32 44.79 8.28 27.25 29.56 60.69 58.52 59.26 35.12-2.1 49.26-45 53.29-58.08 4.33-14 7.86-27.63 8.45-29.7a42.72 42.72 0 0 0 1.53-14.66c.74-2.88 1.45-5.68 2.14-8.22z" fill="#834a27"/><path d="m201 169.14c-5.1-1.29-8.08-3.31-8.86-6-1.73-6 8.47-9.57 7-28.41a.5.5 0 1 1 1-.08c.57 7.07-.49 13.33-3.13 18.59-2.08 4.14-4.68 6.81-3.86 9.62.67 2.33 3.41 4.11 8.15 5.31a.5.5 0 0 1 -.3.97z" fill="#2d1929"/><path d="m180.18 138.71c0 4.62-2.42 8.36-5.4 8.36s-5.41-3.73-5.41-8.35 2.41-8.35 5.39-8.35 5.41 3.73 5.42 8.34z" fill="#2d1929"/><path d="m161.08 117.55a1 1 0 0 1 -.65-1.76c.12-.1 11.89-10 25.23-2.39a1 1 0 1 1 -1 1.73c-12.1-6.91-22.5 1.8-22.93 2.18a1 1 0 0 1 -.65.24z" fill="#2d1929"/><path d="m232.94 138.72c0 4.62-2.43 8.35-5.42 8.35s-5.4-3.74-5.39-8.36 2.43-8.35 5.41-8.34 5.4 3.74 5.4 8.35z" fill="#2d1929"/><path d="m241.22 117.55a1 1 0 0 1 -.65-.24c-.44-.38-10.84-9.08-22.94-2.18a1 1 0 0 1 -1-1.73c13.34-7.62 25.12 2.29 25.23 2.39a1 1 0 0 1 -.64 1.76z" fill="#2d1929"/><path d="m290.78 277.29c-10.33-26.68-101.69-29.1-101.69-29.1s-61.61 24.25-69.87 50.12 9.64 186.76 9.64 186.76h170.19s2.07-181.07-8.27-207.78z" fill="#86ebf9"/><path d="m201.12 248.19a206.31 206.31 0 0 0 -55.67-6.07c-9.51.27-14.78.41-20 1.82-23.79 6.41-35.45 34.45-54.08 83.06-38.32 99.92-45.07 124-31.08 139.55 2.85 3.17 5.85 4.95 10.21 7.6 5 3 20.47 11.53 63.88 10.29 13-.36 22-1.39 22-1.39 41.29-4.7 94.8-14.82 122.2-20.21l-15.9-40.53-115.9-10.47q6.12-41.37 12.22-82.74c36.86-10.93 59.72-42.89 62.12-80.91z" fill="#86ebf9"/><path d="m143.08 323.4c.62-5.09 7.08-55.37 3-53-4.45 2.53-8.85 29.6-13.82 46.07-.26.87-.06.18-14.66 32.23-4.77 10.48-7.79 14.18-12.23 17.34-5.57 4-10 3.47-10.81 8-1.39 7.68 7 17.47 3.15 31.25s-42.59 5.11-55.51 31.61 17.44-16.75 40.15-15.27 33.82 5.33 33.82 5.33l29.56-91.53z" fill="#40c2d6"/><path d="m257.94 297.8s-12.58 55.63-11.48 89.47 38.69 63.55 35.55 68.55-46.35 13.78-46.35 13.78c22.25-42.49-11-86.06-11-86.06 6.88-10.11 8.37-39-.36-51.58a118 118 0 0 1 -13.42-27l-13.88 180.11h102.05l.08-63.46z" fill="#40c2d6"/><path d="m222.46 367.08c-11 26.52-56.54 23-62.88 22.54-13-1-33.54-2.57-42.5-17.84-9.89-16.86 0-40.82 13.17-53.63 11.05-10.7 23.9-13.06 28.23-13.8 2.57-.43 31.21-4.81 50.81 16.31 9.26 9.98 20.14 29.58 13.17 46.42z" fill="#917eec"/><path d="m208.13 373.44s29.65 39.65 8.71 111.63h-99.84s-31.55-76.07 16.69-120.07z" fill="#917eec"/><path d="m108.96 485.07h107.88l5.68-25.73-17.03-9.28-74 25.13z" fill="#6d5fde"/><path d="m175.17 243.45s9.73 28.23 30.15 28.4 22.61-20.33 22.61-20.33-35.25-20.42-52.76-8.07z" fill="#834a27"/><path d="m190.79 461.47 17.34-4.25s8.72 2.33 14.39 2.12l-1.47 8.51a13.85 13.85 0 0 0 9.92-5.32c3.84-5.14-.87-8.63-.87-8.63s11.52-6.46 1.4-12.92c0 0 9.45-5.19-.7-12 0 0 3.84-6.46-.17-10.12s-15.55-8.61-39.84-.57l-12.91 1.45s1.7 36.39 12.91 41.73z" fill="#834a27"/><path d="m202.52 416.72q-3.48 21.48-7 42.94c-14 5.41-89.81 34.18-131.6 27.58-7.41-1.17-15.43-3.72-21.64-10.13-11.36-11.71-13.69-33.26-5.15-44.85 9.35-12.7 29.4-10.28 56-9.43a641.08 641.08 0 0 0 109.39-6.11z" fill="#86ebf9"/><path d="m113.23 414.21s14.91 7.52 17.7 19.85 5.93 30.14 18.15 30.84 11.92-11.87 11-27.23-10.68-27.23-19.06-34.91-30.13-10.26-27.79 11.45z" fill="#917eec"/><path d="m196.12 396.13a71.17 71.17 0 0 1 11.17 19.55c7.37 19.69 7.69 48-4.89 54.8-5.17 2.78-12.74 2-16.41-1.74-4.33-4.46-2.52-12.41-1.81-16.85 1.68-10.58 1.1-26.12-9-47.73z" fill="#917eec"/><path d="m119.62 337s4.71-20.69 4.71-30.11-5.76-16.23 1.57-17.28 28.54 23.69 28.54 23.69-17.02 25.49-34.82 23.7z" fill="#917eec"/><path d="m219 337s-4.71-20.69-4.71-30.11 5.76-16.23-1.57-17.28-28.54 23.69-28.54 23.69 16.98 25.49 34.82 23.7z" fill="#917eec"/><path d="m157.74 346.2a5.36 5.36 0 1 1 2.11-7.28 5.35 5.35 0 0 1 -2.11 7.28z" fill="#2d1929"/><path d="m184.18 345.47a5.36 5.36 0 1 1 2.11-7.29 5.36 5.36 0 0 1 -2.11 7.29z" fill="#2d1929"/><path d="m162.53 364.75a7.63 7.63 0 0 1 -4.54-1.64.5.5 0 0 1 .65-.76 6.14 6.14 0 0 0 5.46 1.16 5.85 5.85 0 0 0 4-4.82.5.5 0 0 1 1 0 4.89 4.89 0 0 0 9.28 1 .49.49 0 0 1 .66-.25.5.5 0 0 1 .25.66 5.87 5.87 0 0 1 -10.59.38 6.67 6.67 0 0 1 -6.17 4.27z" fill="#2d1929"/><path d="m168.84 360.18c-4.3.38-8.31-4.23-7.64-6.09.53-1.5 4.22-1.47 6.46-1.44s6.54.06 7.14 1.91-2.48 5.32-5.96 5.62z" fill="#2d1929"/><path d="m149.86 352.22a61.25 61.25 0 0 0 -20.31-6.22.49.49 0 0 1 -.45-.54.5.5 0 0 1 .55-.45 62.27 62.27 0 0 1 20.69 6.34.5.5 0 0 1 -.48.87z" fill="#efefef"/><path d="m131.08 357.76a.5.5 0 0 1 -.17-1c.46-.17 11.38-4.1 19.28-2a.5.5 0 0 1 -.26 1c-7.84-2.08-18.5 2-18.85 2z" fill="#efefef"/><path d="m134.51 364.52c.43-.24 10.58-5.76 17-6.44a.5.5 0 0 1 .1 1c-6.22.65-16.53 6.26-16.63 6.31a.5.5 0 0 1 -.47-.87z" fill="#efefef"/><path d="m184.48 350.14a62.24 62.24 0 0 1 21.28-3.94.49.49 0 0 1 .49.51.48.48 0 0 1 -.5.49 61.12 61.12 0 0 0 -20.89 3.87.5.5 0 0 1 -.38-.93z" fill="#efefef"/><path d="m202.93 358.71c-.33 0-10.55-5.31-18.55-4.09a.51.51 0 0 1 -.57-.42.5.5 0 0 1 .42-.57c8.11-1.23 18.49 3.92 18.93 4.14a.5.5 0 0 1 -.23.94z" fill="#efefef"/><path d="m198.13 365.85c-.1-.07-9.7-6.81-15.81-8.17a.5.5 0 0 1 -.38-.6.51.51 0 0 1 .6-.38c6.3 1.4 15.76 8.05 16.16 8.34a.5.5 0 0 1 -.57.81z" fill="#efefef"/><g fill="#6d5fde"><path d="m148.64 306.86s5.36 5.84 7 10.37 3.58 7.6 5.59 6.46-2.23-19.41-2.23-19.41-6.6.54-10.36 2.58z"/><path d="m165.43 303.72s2 20.76 5.42 19.19 4.59-18.76 4.59-18.76-6.61-1.46-10.01-.43z"/><path d="m180.72 305s-1.43 17.32.87 18 7.8-15.54 7.8-15.54-5.83-2.95-8.67-2.46z"/><path d="m122.17 378.09s52.83 23.26 89.83 1.8c0 0-43.48 38.45-89.83-1.8z"/><path d="m124.33 326.22s4.71-4.58 4.45-13.87-3.79-13.88-.65-14.53 16.13 14.92 17.94 20.29-2.69.13-6.42-.72-6.16-.46-5.76.13a26.59 26.59 0 0 0 3.79 2.62s-6.22-1.51-7-.07 3.34 2.42 3.34 2.42-6.72 1.32-9.69 3.73z"/><path d="m212.63 326.22s-4.71-4.58-4.45-13.87 3.8-13.88.66-14.53-16.13 14.92-18 20.29 2.7.13 6.43-.72 6.15-.46 5.76.13a27.18 27.18 0 0 1 -3.8 2.62s6.22-1.51 7-.07-3.33 2.42-3.33 2.42 6.76 1.32 9.73 3.73z"/><path d="m138.82 396.13a78.7 78.7 0 0 1 16.93 25.48l5.3-.48a48.62 48.62 0 0 0 -22.23-25z"/><path d="m198.41 396.13s10.75 11 12.49 17.79l-4.1.5s-3.8-14.5-8.39-18.29z"/><path d="m173.29 399.14 2.76 20.75 5.06-.55s-3.89-16.01-7.82-20.2z"/><path d="m115.07 390.54s-3.83 9.46-4.79 13.46c0 0 7.85 10.14 11.08 8.4s-6.29-21.86-6.29-21.86z"/><path d="m217.79 393.64s-8.08 13.09-5.8 14.66 9.45-1.28 9.45-1.28-1.21-9.8-3.65-13.38z"/><path d="m158 426.94a24.67 24.67 0 0 1 -8 7.2c-5.05 2.7 1 4.5 9.81 0-.07 0-.41-5.39-1.81-7.2z"/><path d="m133.06 443.34s9.16-.53 12.22 0-10.48 6.08-10.48 6.08-2.08-4.16-1.74-6.08z"/><path d="m183.67 429.61a25.2 25.2 0 0 0 11 3.83c5.89.39 0 6.9-9.82 5.61-.04 0-1.8-7.97-1.18-9.44z"/><path d="m212.4 446.26a100.6 100.6 0 0 0 -12.28 3.8c-4.18 1.83 5.38 4.78 11.46 4.42 0 0 2.22-4.81.82-8.22z"/></g><path d="m146.08 464.17a.5.5 0 0 1 -.5-.5v-7.85a.5.5 0 0 1 .5-.5.5.5 0 0 1 .5.5v7.85a.5.5 0 0 1 -.5.5z" fill="#efefef"/><path d="m155.23 464.17a.49.49 0 0 1 -.49-.42l-1.32-8.38a.5.5 0 1 1 1-.15l1.32 8.38a.5.5 0 0 1 -.51.57z" fill="#efefef"/><path d="m187 470.1a.51.51 0 0 1 -.49-.59l1.37-7.63a.5.5 0 0 1 .58-.4.51.51 0 0 1 .41.58l-1.37 7.62a.51.51 0 0 1 -.5.42z" fill="#efefef"/><path d="m197 472.57a.5.5 0 0 1 -.5-.5v-7.15a.5.5 0 0 1 .5-.5.51.51 0 0 1 .5.5v7.15a.5.5 0 0 1 -.5.5z" fill="#efefef"/><path d="m377.68 220c-15.88 10.42-58.5 33.8-103.76 19.6a7.69 7.69 0 0 0 -10 6.41l-11.82 102.28c-3.68 31.91 7.35 63.71 29.63 88.71l40.86 45.73a7.65 7.65 0 0 0 8.85 1.88l63.21-28.3c26.16-11.71 45.8-32.61 53.9-58.45l33.1-105.6a7.7 7.7 0 0 0 -6.52-9.92c-47.12-5.43-76.55-44.12-86.82-60.1a7.65 7.65 0 0 0 -10.63-2.24z" fill="#e73f46"/><path d="m294.32 425.72c-19.51-21.83-28.55-48.64-25.44-75.49l10.61-91.8c41.8 8.77 79.8-8 99.73-19.6 13.5 18.68 41.39 49.48 83.14 58.47l-29.92 95.48c-6.6 21.07-22.47 38.15-44.69 48.09l-57.06 25.55z" fill="#cc3745"/><path d="m302 418.85c-17.52-19.61-25.65-43.56-22.89-67.43l9.37-81.08c35.78 4.14 67.84-7.85 87.89-18.2 14.11 17.61 38.53 41.61 72.9 52.37l-26.7 85.18c-5.7 18.21-19.57 33-39 41.76l-50.18 22.47z" fill="#efbd42"/><path d="m314.77 339.09 23.15 44.45 69.84-75.94-65.76 50.6z" fill="#e73f46"/><g clip-path="url(#clip-path-2)"><path d="m376.39 252.14s17.53 39.14 55.85 57.31c-2.93 10-7.45 24.68-13.75 42.14-10 27.78-15 41.67-23 54.09-7.67 12-24.7 33.09-62.13 48.24 0 0 76.08-9.33 100.28-75.75s31.16-92.33 31.16-92.33l-46.24-29.07z" fill="#d7981a"/></g><path d="m185.17 180.35h33.83a17.63 17.63 0 0 1 -33.79 0z" fill="#efefef"/><path d="m462.36 340.49s-24.14-10.53-27.1-4.68 18.32 13.84 18.32 13.84-20.42-8.39-22.34-2.73 18.05 13.66 18.05 13.66-15.51-7.8-18.18-2.54 15.63 15.21 15.63 15.21c-4.69-2.25-13.86-6.29-15.89-3.7a2.68 2.68 0 0 0 -.33 2.07c1.09 7 17.94 15.64 20.69 17l-1.73 6a20.09 20.09 0 0 0 7-1.05c2.51-.86 4.71-1.61 5.9-3.64 2.06-3.5-.49-8-.75-8.49 0 0 10.21-1.75 5-12.58 0 0 9.55-2.92 2.62-12.57-.04 0 8.4-8.78-6.89-15.8z" fill="#834a27"/><path d="m467.72 356.54c-.16 0 .94.47-16.83-7.43a.51.51 0 0 1 -.26-.66.5.5 0 0 1 .66-.26l16.63 7.4a.49.49 0 0 1 -.2.95z" fill="#2d1929"/><path d="m465.45 368.06c-.16 0 1 .48-18.5-7.94a.5.5 0 1 1 .4-.92l18.3 7.9a.5.5 0 0 1 -.2.96z" fill="#2d1929"/><path d="m459.41 380.46c-.19 0 .58.37-12.91-6.77a.5.5 0 0 1 .47-.88l12.67 6.7a.5.5 0 0 1 -.23.95z" fill="#2d1929"/><path d="m81.52 414.42s-34.91 5.17-40.44 24.8 9.14-13.22 47.19-17.37z" fill="#40c2d6"/><path d="m190.2 62.64s-11.9-3.14-15 11.87-23.72 19.55-23.72 19.55-7.2 22.4-7.71 40.63l-10.59 2-7.36-20.1s-18.32-12-9.24-30.17 9.07-14.31 23.73-40.15 49.67-23.11 63-14c0 0 25.67-10.82 42.08-3.14s37.32 37.87 39.06 52.08-7.94 19.48-7.94 19.48l-3.23 34-11.68-1.34-6.82-31.61s-22.34 10.47-29.67-11.87-13.26-37-34.91-27.23z" fill="#2d1929"/><path d="m159.84 135c-4.37-10.8-15.12-16.65-24-13.06s-12.56 15.26-8.2 26.07 15.12 16.65 24 13.06 12.56-15.23 8.2-26.07z" fill="#834a27"/><path d="m143.22 153.42a.51.51 0 0 1 -.32-.12c-.15-.13-3.74-3.17-3.58-5.88.13-2.39 2.72-3.42 3.75-3.73-.35-6.28-3.68-15.56-9.82-14.34a.49.49 0 0 1 -.59-.39.51.51 0 0 1 .39-.59c7-1.4 10.78 8.55 11 15.68a.5.5 0 0 1 -.39.5s-3.26.76-3.38 2.93c-.11 1.83 2.29 4.27 3.23 5.06a.5.5 0 0 1 -.29.88z" fill="#2d1929"/><path d="m266.48 122c-8.9-3.59-19.64 2.26-24 13.06s-.7 22.47 8.2 26.07 19.64-2.26 24-13.06.69-22.49-8.2-26.07z" fill="#834a27"/><path d="m259.08 153.42a.5.5 0 0 1 -.32-.88c.93-.79 3.33-3.23 3.23-5.06-.12-2.18-3.35-2.92-3.38-2.93a.5.5 0 0 1 -.4-.5c.27-7.13 4.05-17.07 11-15.68a.51.51 0 0 1 .4.59.5.5 0 0 1 -.59.39c-6.16-1.21-9.48 8.07-9.83 14.34 1 .31 3.62 1.34 3.76 3.74.15 2.7-3.44 5.74-3.59 5.87a.49.49 0 0 1 -.28.12z" fill="#2d1929"/><path d="m174 162.44a22.88 22.88 0 1 1 22.88-22.88 22.91 22.91 0 0 1 -22.88 22.88zm0-43.76a20.88 20.88 0 1 0 20.88 20.88 20.9 20.9 0 0 0 -20.88-20.88z" fill="#efefef"/><path d="m230.54 162.44a22.88 22.88 0 1 1 22.89-22.88 22.91 22.91 0 0 1 -22.89 22.88zm0-43.76a20.88 20.88 0 1 0 20.89 20.88 20.9 20.9 0 0 0 -20.89-20.88z" fill="#efefef"/><path d="m208.68 140.56h-12.83a1 1 0 1 1 0-2h12.83a1 1 0 0 1 0 2z" fill="#efefef"/></g></svg>