<svg height="512" viewBox="0 0 512 512" width="512" xmlns="http://www.w3.org/2000/svg"><g id="Health_Insurance" data-name="Health Insurance"><path d="m439.22 265s-4.76-61.92-2.26-63.06 9.07 6.81 10.43 16.56c0 0 18.26-11.79 22.91-10.21s1.25 7.49 1.25 7.49 7.4 0 5.68 7c0 0 5.88 1.47 2.14 7.6 0 0 4 1.47 2.16 7.6s-10.1 12.36-11.35 19.05.8 23.48.8 23.48l-30.17 1.13z" fill="#d89071"/><rect fill="#ffb833" height="28.11" rx="1.73" transform="matrix(0 -1 1 0 144.57 288.7)" width="5.25" x="214.01" y="58.01"/><rect fill="#ffb833" height="28.11" rx="1.73" transform="matrix(-1 0 0 -1 433.27 144.13)" width="5.25" x="214.01" y="58.01"/><rect fill="#ffb833" height="22.38" rx="1.73" transform="matrix(0 -1 1 0 -14.79 443.61)" width="4.18" x="212.32" y="218.01"/><rect fill="#ffb833" height="22.38" rx="1.73" transform="matrix(-1 0 0 -1 428.81 458.4)" width="4.18" x="212.32" y="218.01"/><rect fill="#ffb833" height="22.38" rx="1.73" transform="matrix(0 -1 1 0 188.47 609.41)" width="4.18" x="396.85" y="199.28"/><rect fill="#ffb833" height="22.38" rx="1.73" transform="matrix(-1 0 0 -1 797.88 420.94)" width="4.18" x="396.85" y="199.28"/><rect fill="#aaeeea" height="78.46" rx="19.6" width="111.08" x="92.95" y="100.59"/><path d="m171.9 173.35s2 22.06 18.1 21.81c1.21 0 1.86-2.29 1.11-3.86-1.69-3.5-3.6-10.11-3.28-21.86z" fill="#aaeeea"/><path d="m259.28 158.86a13.55 13.55 0 0 0 -10.22-3.4 10.4 10.4 0 0 0 -6 2.61c-5.33 5.49-2.39 21.89 7.47 25.66 5.5 2.1 11.12-.51 13-1.5q-2.14-11.68-4.25-23.37z" fill="#d17352"/><path d="m254.07 178.44a.4.4 0 0 1 -.25-.09c-2.52-2.21-3.73-4.57-3.59-7 .17-3 2.25-5.25 3.52-6.4l-8.05.76a.37.37 0 1 1 -.07-.74l9.29-.89a.39.39 0 0 1 .39.25.38.38 0 0 1 -.14.44s-4 2.79-4.19 6.63c-.12 2.2 1 4.36 3.34 6.41a.37.37 0 0 1 0 .52.34.34 0 0 1 -.25.11z" fill="#383333"/><path d="m374.5 153.27a13.55 13.55 0 0 1 9.84-4.38 10.36 10.36 0 0 1 6.26 2c5.84 5 4.51 21.56-4.94 26.27-5.28 2.63-11.12.57-13.1-.24q.98-11.83 1.94-23.65z" fill="#d17352"/><path d="m381.54 172.26a.36.36 0 0 1 -.25-.11.38.38 0 0 1 0-.53c2.13-2.26 3-4.52 2.7-6.7-.59-3.79-4.77-6.17-4.81-6.19a.38.38 0 0 1 -.18-.42.36.36 0 0 1 .36-.28h9.33a.38.38 0 1 1 0 .75h-8.08c1.38 1 3.67 3.11 4.12 6 .38 2.43-.6 4.89-2.89 7.34a.39.39 0 0 1 -.3.14z" fill="#383333"/><circle cx="316.14" cy="140.65" fill="#d89071" r="66.77"/><path d="m298.14 197.4c2.55 10.69 4.5 26.5-4 38-11.24 15.15-29.63 7.88-43.17 20.72-11.93 11.32-10.8 29.44-4 87.21 3.92 33.41 7.62 62.1 10.64 84.61a155.29 155.29 0 0 0 39.82 12.63c42.1 7.28 76.66-4.91 93.17-12.13-.55-6.25-1.18-15.52-1.3-26.76-.27-27 2.71-41.7 5.59-69.58 4.35-42 6.51-63 0-71.37-14.2-18.21-40.7-8.52-54.1-28.21-7.92-11.63-6.51-26.53-4-37.41z" fill="#d89071"/><path d="m250.36 154.32c1.85 10.09 8.32 37.53 32.35 55.89 6.45 4.94 16.89 12.7 32 13.6 18.19 1.07 31.5-8.44 36.75-12.18 28.84-20.59 31.15-57.58 31.44-63.75.04 0-85.22-85.76-132.54 6.44z" fill="#d89071"/><path d="m238.46 350.25c.74 17.3 2 48.44 3.45 89.8a291 291 0 0 0 163.19 4.32c-.65-45.73 0-80.69 2.59-108.79 0 0 4.05-44.81-11.76-71.91-.48-.83-.88-1.45-1.09-1.73-9.77-13.45-25.38-12.72-38.53-17.85-1.37 6-7.12 21.81-30.1 25.8-28.49 4.94-43.9-25.74-43.9-25.74-8.9.86-21.53 3.57-31.37 12.85-16.28 15.36-14.8 39.22-12.48 93.25z" fill="#00ccc1"/><path d="m267.47 248.57s-24.21 2-37 19.72-32.06 97.27-32.06 97.27l11.22 18.37a55.18 55.18 0 0 0 14.57-5.18c19-10 26.76-31.42 41.45-73.82 4.59-13.26 8-24.95 6.1-39.69a69.79 69.79 0 0 0 -4.28-16.67z" fill="#aaeeea"/><path d="m378.3 249.69s24.29-.27 38.69 16.12 41.15 93.78 41.15 93.78q1.42 10.73 2.86 21.41a69.35 69.35 0 0 1 -25.71-6.2c-21.86-10.12-31.19-29.82-49.84-69.22-5.53-11.67-10.35-23.56-9.85-38.92a70 70 0 0 1 2.7-16.97z" fill="#aaeeea"/><path d="m275.45 152a20.27 20.27 0 0 1 11.48-4.38c2.83-.21 6.66-.49 8 1.68a3.12 3.12 0 0 1 .07 3.13c-1.24 1.85-4.66.4-10.07.61-7.12.28-11.61 3.2-12.13 2.21-.41-.73 1.79-2.55 2.65-3.25z" fill="#383333"/><path d="m357.39 147.77a20.33 20.33 0 0 0 -11.88-3.08c-2.84.11-6.68.26-7.73 2.56a3.11 3.11 0 0 0 .28 3.12c1.44 1.7 4.68-.12 10.07-.51 7.11-.51 11.9 1.89 12.3.84.29-.76-2.1-2.32-3.04-2.93z" fill="#383333"/><path d="m321.78 177.3c-2.79 0-8.17-.27-8.89-2.28-.84-2.33 3.8-12 4.74-13.9a.51.51 0 0 1 .67-.23.52.52 0 0 1 .23.67c-2.11 4.28-5.24 11.63-4.7 13.12.47 1.31 5.74 1.72 9.31 1.59a.5.5 0 0 1 0 1c-.24.01-.74.03-1.36.03z" fill="#383333"/><path d="m294.28 170a5.86 5.86 0 1 1 .11-8.29 5.88 5.88 0 0 1 -.11 8.29z" fill="#383333" fill-rule="evenodd"/><path d="m349.52 167.12a5.86 5.86 0 1 1 -.37-8.28 5.87 5.87 0 0 1 .37 8.28z" fill="#383333" fill-rule="evenodd"/><path d="m292.86 230.53s29.35 4.31 49.07-1.87c0 0 4.89 10.21 12.23 13.09s29.65 8.76 34.78 11.18l-30 26.81-71.84 2.26-29.71-31.4s8.77-2.41 20.57-6.55 14.9-13.52 14.9-13.52z" fill="#00ccc1"/><ellipse cx="279.81" cy="182.81" fill="#d17352" rx="7.89" ry="4.92" transform="matrix(1 -.031 .031 1 -5.6 8.86)"/><ellipse cx="353.73" cy="180.49" fill="#d17352" rx="7.89" ry="4.92" transform="matrix(1 -.031 .031 1 -5.49 11.18)"/><path d="m471.42 257.46c12.58 97.94 2.27 119.39-7.67 123-5 1.81-13.6.32-19.37-4.2-9.73-7.6-9.73-22.37-9.58-33.18.37-28.28 1.1-55.27 2.18-81.69a67.16 67.16 0 0 1 34.44-3.89z" fill="#aaeeea"/><path d="m354.16 241.75.44 212.25s43.07-1.9 58.61-11.19c0 0-6.53-176.43-12.29-183s-40.48-17.12-46.76-18.06z" fill="#aaeeea"/><path d="m282.48 241.75 11.18 209.85s-43.61-3.83-58.3-8.8c0 0 3.53-180.33 6.51-185.19s34.07-13.2 40.61-15.86z" fill="#aaeeea"/><path d="m306.76 100.83s-9.37-5.59-17.84.91-7.11 21.17-13.31 26.62-19.61 5.89-19.61 5.89 1.06 27.95 2 34.77-8.92 2.16-13.76-21.14l-2.29-12.64s-9.2 1-13.74-9.91c0 0 12.09 0 17.54-24.19s34.25-43.55 67.53-31.76c0 0 24-12.4 43.38 2.72s29.94 57.77 45.06 55.35c0 0-6.51 4.85-13.05 3.93 0 0-5.09 27.58-9.33 33.75s-6.78-32.54-6.78-32.54-14.7 6.59-21.5-8.35-25.25-42.76-44.3-23.41z" fill="#383333"/><path d="m436.23 347.17a.49.49 0 0 1 -.48-.36c-.06-.22-5.68-21.44 0-44.48a.49.49 0 0 1 .6-.37.51.51 0 0 1 .37.61c-5.62 22.78-.06 43.76 0 44a.5.5 0 0 1 -.35.62z" fill="#383333"/><path d="m406.94 345.41h-.05a.48.48 0 0 1 -.45-.54c2.6-28.32-2.41-62.4-2.46-62.74a.51.51 0 0 1 .42-.57.5.5 0 0 1 .57.42c0 .34 5.08 34.54 2.46 63a.5.5 0 0 1 -.49.43z" fill="#383333"/><path d="m201.91 255a14.71 14.71 0 0 1 17.27 10.35c7.79 27.41 15.9 74.29-.38 126.52a209.67 209.67 0 0 1 -21.87 47.87 14.73 14.73 0 0 1 -16.25 6.49 257.38 257.38 0 0 1 -41.94-14.91c-51-23.33-84.27-58.89-103.79-85a14.68 14.68 0 0 1 2.74-20.44 183.13 183.13 0 0 0 39.87-42.24 181.58 181.58 0 0 0 16-28.86 14.69 14.69 0 0 1 19-7.69 149.93 149.93 0 0 0 89.33 8z" fill="#ffb833"/><path d="m184.79 432.77a.94.94 0 0 1 -.62 0 243.1 243.1 0 0 1 -39.69-14.11c-38.48-17.54-71.6-44.66-98.48-80.66a.9.9 0 0 1 .09-1.24 196.45 196.45 0 0 0 42.91-45.46 195.66 195.66 0 0 0 17.19-31.05.91.91 0 0 1 .48-.48.75.75 0 0 1 .64 0 163.83 163.83 0 0 0 97.54 8.69.89.89 0 0 1 1 .63c8 28.08 14.42 71.47-.28 118.63a195.9 195.9 0 0 1 -20.44 44.72.8.8 0 0 1 -.34.33z" fill="#ffdb99"/><rect fill="#ff832f" height="25.2" rx="8.49" transform="matrix(.916 -.4 .4 .916 -123.5 84.7)" width="80.27" x="100.85" y="325.36"/><rect fill="#ff832f" height="80.27" rx="8.49" transform="matrix(.916 -.4 .4 .916 -123.5 84.7)" width="25.2" x="128.39" y="297.83"/><path d="m359 343.28a2 2 0 0 1 -1.75-3c21.72-39.68 24.7-78.7 7.23-94.89a33.25 33.25 0 0 0 -16-7.83 2 2 0 0 1 .83-3.91 37.12 37.12 0 0 1 17.9 8.8c19.11 17.72 16.52 57.8-6.44 99.75a2 2 0 0 1 -1.77 1.08z" fill="#ffb833"/><circle cx="357.95" cy="349.14" fill="#ffb833" r="12.62"/><circle cx="358.49" cy="349.19" fill="#ff832f" r="7.78"/><path d="m261.75 353.09a2 2 0 0 1 -1.72-1c-.73-1.22-17.68-30.17-13.59-51.8 1.85-9.84 8-16.84 16.89-19.2a26 26 0 0 1 26.28 8.44c12.06 14.1 12.46 48.37 12.47 49.82a2 2 0 0 1 -1.88 2l-7.47.46a2 2 0 0 1 -.25-4l5.55-.34c-.26-7.36-1.87-34.15-11.46-45.36a22 22 0 0 0 -22.21-7.11c-7.33 2-12.43 7.82-14 16.08-3.34 17.69 9.16 41.9 12.37 47.73l8-2a2 2 0 1 1 1 3.87l-9.5 2.43a2.05 2.05 0 0 1 -.48-.02z" fill="#ffb833"/><rect fill="#ff832f" height="7.82" rx="2.62" transform="matrix(.972 -.235 .235 .972 -74.38 73.48)" width="9.93" x="266.72" y="345.49"/><rect fill="#ff832f" height="7.82" rx="2.62" transform="matrix(.993 -.121 .121 .993 -39.01 37.86)" width="9.93" x="287.58" y="336.56"/><path d="m260.4 286.29a2 2 0 0 1 -1.89-1.35c-.29-.84-7-20.82 2.46-35.91 5.45-8.65 15.07-13.82 28.59-15.37a2 2 0 1 1 .46 4c-12.25 1.4-20.88 6-25.65 13.51-8.49 13.45-2.15 32.3-2.08 32.49a2 2 0 0 1 -1.24 2.54 1.91 1.91 0 0 1 -.65.09z" fill="#ffb833"/><path d="m239.68 367.74a.5.5 0 0 1 -.5-.51l.72-83a.48.48 0 0 1 .5-.49.5.5 0 0 1 .5.5l-.72 82.95a.5.5 0 0 1 -.5.55z" fill="#383333"/><path d="m148.2 131.14c-.58-1.26-4-8.53-11.69-10.48-2.54-.65-7-.14-9.75 1-14.3 5.72 1.32 38.6 24 41.22 0 0 32.24-20.49 23.42-33.83-2.34-3.53-5.58-6.47-9.35-7.2-6.26-1.26-13.16 2.41-16.63 9.29z" fill="#00ccc1"/><g fill="#383333"><path d="m452.83 234.36a.38.38 0 0 1 -.36-.4c.31-6.16-5.32-15.17-5.38-15.26a.38.38 0 1 1 .64-.4c.23.38 5.81 9.3 5.49 15.7a.37.37 0 0 1 -.39.36z"/><path d="m456.21 224.7a1.76 1.76 0 0 1 -1.45-.58c-2.37-3 5.12-10.24 6-11.06a.38.38 0 0 1 .52.55c-2.21 2.09-7.56 8-5.92 10 1.46 1.82 10.57-4 16-8.18a.38.38 0 0 1 .52.07.37.37 0 0 1 -.07.53c-2.14 1.65-11.56 8.67-15.6 8.67z"/><path d="m459.83 230.11c-.26 0-.51 0-.76 0-1.51-.17-2.44-.71-2.74-1.59-.68-2 2.2-4.86 2.53-5.17a.37.37 0 1 1 .52.53c-.8.78-2.79 3.09-2.34 4.4.2.58.91.95 2.12 1.08 5.48.62 17.76-6.76 17.88-6.83a.36.36 0 0 1 .51.13.37.37 0 0 1 -.12.51c-.5.26-11.64 6.94-17.6 6.94z"/><path d="m463.61 236.22a3.2 3.2 0 0 1 -.56 0 3.15 3.15 0 0 1 -2.8-2.26 4.61 4.61 0 0 1 1.71-4.48.38.38 0 0 1 .47.59 3.86 3.86 0 0 0 -1.45 3.7 2.42 2.42 0 0 0 2.18 1.71c3.39.54 15.92-5.31 16-5.37a.38.38 0 1 1 .32.68c-.48.21-11.7 5.43-15.87 5.43z"/><path d="m468.71 240.42a11.05 11.05 0 0 1 -2.63-.28c-1.74-.42-2.73-1.1-2.95-2-.32-1.34 1.09-2.57 1.15-2.62a.38.38 0 0 1 .53 0 .37.37 0 0 1 0 .53c-.31.27-1.09 1.14-.91 1.87s1 1.14 2.4 1.49c4.75 1.14 12.89-2 13-2a.37.37 0 0 1 .48.21.38.38 0 0 1 -.22.49c-.34.13-6.07 2.31-10.85 2.31z"/><path d="m319.39 224.85a55.33 55.33 0 0 1 -19.7-3.89.5.5 0 0 1 .4-.91c.2.08 20 8.56 35.37 0a.5.5 0 0 1 .49.88 33.81 33.81 0 0 1 -16.56 3.92z"/><path d="m319.1 196.52a17.46 17.46 0 0 1 -12.1-5.07.5.5 0 0 1 0-.71.5.5 0 0 1 .71 0 16 16 0 0 0 22.79 0 .5.5 0 0 1 .71 0 .5.5 0 0 1 0 .71 17.47 17.47 0 0 1 -11.94 5.07z"/><path d="m319.05 201.08h-.16a8 8 0 0 1 -4.16-1.25.36.36 0 0 1 -.12-.51.37.37 0 0 1 .52-.12 7.32 7.32 0 0 0 3.77 1.13 7.43 7.43 0 0 0 4.1-1.13.37.37 0 0 1 .52.12.36.36 0 0 1 -.12.51 8 8 0 0 1 -4.35 1.25z"/></g><path d="m255 118.74a.5.5 0 0 1 -.06-1c9.88-1.07 13.74-8.16 17.47-15 2.87-5.26 5.83-10.7 11.48-13a30.92 30.92 0 0 1 23.71 0 .5.5 0 1 1 -.44.89 29.92 29.92 0 0 0 -22.89 0c-5.32 2.2-8.07 7.24-11 12.58-3.86 7.09-7.84 14.41-18.24 15.53z" fill="#fff"/><path d="m259.22 101.09a.53.53 0 0 1 -.22-.09.5.5 0 0 1 -.2-.68c7.82-14.56 16.27-20.13 22-22.23 6.25-2.3 10.58-1.11 10.77-1.06a.5.5 0 0 1 -.28 1c-.16 0-17-4.4-31.58 22.81a.52.52 0 0 1 -.49.25z" fill="#fff"/><path d="m372.52 123.48c-13.45 0-20.06-12.23-26-23.13a91.46 91.46 0 0 0 -5.52-9.42c-8-11.22-25.71-4.41-25.89-4.35a.5.5 0 0 1 -.65-.28.51.51 0 0 1 .28-.65c.19-.07 18.61-7.15 27.08 4.7a91.93 91.93 0 0 1 5.61 9.52c6.36 11.76 13.57 25.08 29.39 22.2a.5.5 0 0 1 .18 1 25.69 25.69 0 0 1 -4.48.41z" fill="#fff"/><path d="m374.76 112.1c-7-.4-14.05-6.39-21-17.79a111.79 111.79 0 0 1 -8.3-16.93.5.5 0 0 1 .29-.64.52.52 0 0 1 .65.3c.12.33 12.48 33.14 28.4 34.07a.5.5 0 0 1 0 1z" fill="#fff"/></g></svg>