<svg height="512" viewBox="0 0 512 512" width="512" xmlns="http://www.w3.org/2000/svg" xmlns:xlink="http://www.w3.org/1999/xlink"><clipPath id="clip-path"><path d="m310.67 116.66h25.96v50.97h-25.96z"/></clipPath><clipPath id="clip-path-2"><path d="m203.8 172.95h28.4v54.72h-28.4z"/></clipPath><g id="Assistance"><g clip-path="url(#clip-path)"><path d="m310.67 116.66h25.96v50.97h-25.96z" fill="#955d43"/><path d="m308.82 135.54a24.64 24.64 0 0 0 31.91 0v-15.62h-31.91z" fill="#834a27"/></g><path d="m359.3 76.81s-.62-29.76-21.7-37.29l-.56-.09a32.93 32.93 0 0 0 -24.87.08h-.05a25.93 25.93 0 0 0 -8.82 5.3c-.25.21-.38.34-.38.34-12.07 11.3-12.5 31.65-12.5 31.65a21.09 21.09 0 0 0 -.17 3.45c.19 5.67 3.61 18.87 4.35 23.38 4.32 14.23 15.43 31.69 30.55 30.94 18.34-1.09 25.72-23.51 27.83-30.32 2.26-7.32 4.1-14.43 4.41-15.51a22.37 22.37 0 0 0 .8-7.65c.38-1.49.75-2.95 1.11-4.28z" fill="#955d43"/><path d="m323.65 104.76h-.13c-2.75-.7-4.36-1.81-4.8-3.3s.32-2.56 1.15-3.94c.3-.52.62-1.05.92-1.64a17.4 17.4 0 0 0 1.56-9.3.5.5 0 0 1 .46-.54.5.5 0 0 1 .54.46 18.28 18.28 0 0 1 -1.67 9.83c-.31.63-.65 1.2-.95 1.7-.77 1.28-1.32 2.2-1.05 3.15.33 1.13 1.71 2 4.09 2.61a.5.5 0 0 1 -.12 1z" fill="#2d1929"/><path d="m312.71 88.63c0 2.41-1.26 4.36-2.81 4.36s-2.83-1.95-2.83-4.36 1.26-4.36 2.82-4.36 2.82 1.95 2.82 4.36z" fill="#2d1929"/><path d="m302.75 78.05a1 1 0 0 1 -.66-1.75c.07-.06 6.47-5.45 13.72-1.31a1 1 0 1 1 -1 1.74c-6-3.43-11.21.9-11.43 1.08a1 1 0 0 1 -.63.24z" fill="#2d1929"/><path d="m340.26 88.63c0 2.37-1.26 4.37-2.82 4.37s-2.82-1.95-2.82-4.36 1.27-4.36 2.82-4.36 2.82 1.94 2.82 4.35z" fill="#2d1929"/><path d="m344.59 78.05a1 1 0 0 1 -.65-.24c-.23-.19-5.42-4.51-11.43-1.08a1 1 0 1 1 -1-1.74c7.25-4.14 13.65 1.25 13.72 1.31a1 1 0 0 1 .1 1.41 1 1 0 0 1 -.74.34z" fill="#2d1929"/><path d="m317.72 145.09c-12.52 4.45-35.35 14.69-41.23 35.06a39.7 39.7 0 0 0 -.67 17.93c3.49 22.63 7.2 50.86 11.59 86.46l91.8 2a591.05 591.05 0 0 1 1.87-79.43c1.51-16.24 3.08-25.38-1.87-35.13-10.99-21.65-43.81-25.9-61.49-26.89z" fill="#efbd42"/><path d="m317.72 145.09s-43.19 13.53-50.72 42.74-16.48 98.75-16.48 98.75l36.63 8.22c3.07-22.45 7-46.08 11.89-70.71 5.6-28.09 11.96-54.44 18.68-79z" fill="#efbd42"/><path d="m286.27 278.26-29.08 203.74h160c-1.33-25-3.85-51.79-8-80a866 866 0 0 0 -31.41-135.64z" fill="#917eec"/><path d="m332 146.87s43.37 2.74 55.26 25.9 56.33 88.33 46.94 105.49-40.38.64-71.2-61.19-31-70.2-31-70.2z" fill="#efbd42"/><rect fill="#efbd42" height="13.92" rx="2.92" width="31.29" x="307.32" y="139.91"/><path d="m279.33 181.19a232.36 232.36 0 0 1 3.72 42.45c-.34 21.7 3.1 55.18 3.1 55.18s3.58-45.61 2.57-63-9.39-34.63-9.39-34.63z" fill="#d7981a"/><path d="m367.25 177 5 19.38s8.76 13.51 9.39 23.59a47.46 47.46 0 0 1 -2 17.44l.46 28.95-57.76 8s34.61-9.25 40.87-21.14-.94-9.28 6.57-17 12.2-15.05-.94-37.67z" fill="#d7981a"/><path d="m344.4 192.36h36.87v24.71h-36.87z" fill="#86ebf9"/><path d="m365.83 196.35h-5.99l-1.12-11.22h8.23z" fill="#40c2d6"/><rect fill="#40c2d6" height="1.8" rx=".89" width="28.01" x="349.72" y="202.26"/><rect fill="#40c2d6" height="1.25" rx=".62" width="23.94" x="351.37" y="206.48"/><path d="m316.24 109.79 15-.94a8.31 8.31 0 0 1 -8.56 6 8.11 8.11 0 0 1 -6.44-5.06z" fill="#f4f4f4"/><path d="m334.62 51.12a42.34 42.34 0 0 1 -5.24 8.3c-10.39 12.83-25.6 15.87-31.6 16.73a73.09 73.09 0 0 0 -1.1 18c.44 6.72 1.36 18.77 9.39 29.88a45.6 45.6 0 0 0 4.6 5.41c-5.5.27-15.79-.11-22.9-7-9.84-9.49-7.26-25.22-4.38-42.71 3.36-20.5 5.91-36 19.24-43.65 13.53-7.77 29.55-2.47 34.81-.47 16.9.37 24.16 7.5 26.44 10.09 7 8 5.68 21.5 2.74 48.26s-7.08 31.94-11.26 34.58c-6.34 4-14 3.1-18.74 2a45.53 45.53 0 0 0 8.09-10.09c4.11-7.39 8.39-19.49 9-38.31.01.03-16.31-14.59-19.09-31.02z" fill="#2d1929"/><path d="m302.09 86.71c-2.28-5.64-7.89-8.69-12.53-6.82s-6.56 8-4.28 13.61 7.89 8.7 12.53 6.82 6.56-7.97 4.28-13.61z" fill="#955d43"/><path d="m293.42 96.54a.48.48 0 0 1 -.32-.11c-.21-.18-2-1.76-2-3.27.07-1.27 1.29-1.87 1.95-2.1-.17-2.39-1.11-5.29-2.68-6.54a2.55 2.55 0 0 0 -2.15-.55.49.49 0 0 1 -.59-.39.5.5 0 0 1 .39-.59 3.52 3.52 0 0 1 3 .75c2 1.57 3 5.07 3.08 7.66a.51.51 0 0 1 -.39.51s-1.53.37-1.58 1.31c0 .76 1 1.9 1.6 2.44a.51.51 0 0 1 .06.71.52.52 0 0 1 -.37.17z" fill="#2d1929"/><path d="m357.77 79.89c-4.64-1.87-10.25 1.18-12.53 6.82s-.37 11.73 4.28 13.61 10.25-1.18 12.53-6.82.37-11.73-4.28-13.61z" fill="#955d43"/><path d="m353.91 96.54a.52.52 0 0 1 -.38-.17.51.51 0 0 1 .06-.71c.64-.54 1.64-1.68 1.6-2.44-.05-1-1.56-1.31-1.58-1.31a.51.51 0 0 1 -.39-.51c.1-2.59 1.1-6.09 3.09-7.66a3.5 3.5 0 0 1 3-.75.5.5 0 0 1 .39.59.49.49 0 0 1 -.59.39 2.52 2.52 0 0 0 -2.14.55c-1.58 1.25-2.52 4.15-2.69 6.54.66.23 1.88.83 1.95 2.1.09 1.51-1.75 3.09-2 3.27a.46.46 0 0 1 -.32.11z" fill="#2d1929"/><path d="m285.56 280.84c11.62 1 29.2 2.23 50.87 3 18.62.68 17.69.18 19.71.6l61.06 197.56s-7.4-129.62-37.13-215.67l-94.51 11.49z" fill="#6d5fde"/><path d="m356.61 482s-5.93-180.55-12.67-182.94-2.07 182.94-2.07 182.94z" fill="#6d5fde"/><path d="m398.92 157.17s-6.38-3.69-10.24-13.61-12.36-11.68-10.68-15.44 9.26.25 11.07 2.39 2.85 3 4.13 1.84-3.6-24.7-.87-27.41 7.14 18.34 7.14 18.34-.09-21.87 3.19-20.89 3.81 20.16 3.81 20.16 1.41-18.79 4-19.28 2.53 19.73 2.53 19.73 3.14-13.8 5.84-14.93.54 21.72.13 33.43-8.97 18.13-20.05 15.67z" fill="#955d43"/><path d="m393.08 145.09 2.48 24.32 25.29 2.46-4.54-23.59z" fill="#955d43"/><path d="m394.39 158.84c0 5.55-.36 99.48 15.72 116.88 2.47 2.66 8.45 9.13 16 8.71a18.06 18.06 0 0 0 10.27-5c13.53-12.54-13.51-104.52-17.6-118.28z" fill="#efbd42"/><path d="m394.28 187.83s-8.13 64.47 17.93 86.5a256.22 256.22 0 0 1 -17.93-86.5z" fill="#d7981a"/><path d="m405.18 143.08a.49.49 0 0 1 -.48-.37 15.27 15.27 0 0 0 -9.77-10.4.5.5 0 0 1 -.34-.49.51.51 0 0 1 .37-.47 41.61 41.61 0 0 1 11.34-1.53 43.6 43.6 0 0 1 8.37.84.5.5 0 0 1 .39.59.49.49 0 0 1 -.58.39 42.58 42.58 0 0 0 -8.18-.82 40.55 40.55 0 0 0 -9.6 1.12 16.23 16.23 0 0 1 9 10.51.5.5 0 0 1 -.35.61z" fill="#2d1929"/><path d="m387.68 325.93h-152.56v-31.13l135 7.58a18.63 18.63 0 0 1 17.56 18.62z" fill="#40c2d6"/><path d="m282.78 411.81-15-3.37q-8.25-122.58-16.52-245.18l14.07-1z" fill="#40c2d6"/><path d="m404.73 456.33c0-69.11-50.57-125.14-112.94-125.14s-112.94 56-112.94 125.14a138.71 138.71 0 0 0 2.39 25.67h221.1a138.71 138.71 0 0 0 2.39-25.67z" fill="#40c2d6"/><path d="m390.2 456.33c0-61-44.14-110.61-98.41-110.61s-98.41 49.62-98.41 110.61a123.55 123.55 0 0 0 2.68 25.67h191.46a123.55 123.55 0 0 0 2.68-25.67z" fill="#86ebf9"/><g fill="#40c2d6"><path d="m316.37 456.33c0-21.05-13-36.78-24.58-36.78s-24.58 15.73-24.58 36.78a45.62 45.62 0 0 0 7.53 25.67h34.11a45.7 45.7 0 0 0 7.52-25.67z"/><path d="m276.09 340.33 11.26 96.43h4.44l4.47-96.43z"/><path d="m283.08 445.24-68.55-69.94-12.53 17.19 74.55 57.17z"/><path d="m300.7 445.63 64.73-73.56 12.52 18.37-71.8 57.73z"/><path d="m303.12 465 96.47-8.67v18.55l-96.47-3.02z"/><path d="m206.75 482 75.39-10.95-2.02-6.05-95.21 4.03 2.29 12.97h8.86z"/><path d="m222.67 163.31h39.35v13.54h-39.35z"/></g><path d="m261.85 401.29-113.6 5.54-20.03-203.14 133.8-6.53z" fill="#86ebf9"/><path d="m147.1 395.15 4.4 27.28s72.52 16 149.74 18.74l43-30.2-103.43-23.46z" fill="#40c2d6"/><path d="m159.73 424-15.24-2.39q-16.14-121.8-32.3-243.6l14-1.88z" fill="#40c2d6"/><path d="m71.84 176.08h54.51v13.78h-54.51z" fill="#40c2d6"/><g clip-path="url(#clip-path-2)"><path d="m203.8 172.95h28.4v54.72h-28.4z" fill="#f5b493"/><path d="m206.14 187.08a36.51 36.51 0 0 0 7 10.3 38.88 38.88 0 0 0 22.12 11q.38-8.56.77-17.13z" fill="#eba284"/></g><path d="m207.62 212.66c-11 .89-28.55 4.15-37.32 17.62-6.12 9.41-4.19 18 .68 56.43 4.93 39 8.8 76.33 8.8 76.34h98.77s-9.55-137.63-17.17-146.05-53.76-4.34-53.76-4.34z" fill="#e73f46"/><path d="m273 339.67c7.81 2.35 22.55 6.76 41.3 12.09 44.15 12.55 56.89 15 64 27.19 4.58 7.9 4.51 16.85 4.52 34.75 0 16.64-2.95 36.64-2.95 36.64h-40.35l-16.19-45.71-56.33-29.21q3-17.87 6-35.75z" fill="#287eef"/><path d="m180.73 352.59c-2.26 8.39-10 40.67 7 57.75 5.29 5.29 12.65 8.82 46.5 12.42 24.36 2.6 45.15 3.38 60.94 3.53q1.35 12 2.69 24h51a261.78 261.78 0 0 0 -3.86-34.63c-1.86-10.37-2.79-15.56-4-18.13-6.71-13.9-20.4-16.1-59-33.93-7.68-3.55-13.83-6.55-17.51-8.37z" fill="#287eef"/><path d="m295.2 426.29 3 55.71h84.61c.53-14.67.78-29.92.67-45.71q-.15-22.28-1.16-43.08z" fill="#287eef"/><path d="m176.35 329.19 2 41.63s27.32 11.83 54.06 7.05 48.68-30 62.78-31.63c0 0-15.37-11.47-21.45-40.95s-97.39 23.9-97.39 23.9z" fill="#e73f46"/><path d="m177.48 352.59 1.37 19.48s41.06 13.53 56.92 8.15 47.77-31.87 59.43-34l-12.81-15.05-78.82 12.1z" fill="#cc3745"/><path d="m288.52 352.59h-152.52v-31.12l135 7.57a18.65 18.65 0 0 1 17.6 18.62z" fill="#40c2d6"/><path d="m203.8 213.35c2.73 7 9.88 11.06 16.7 9.82a15.14 15.14 0 0 0 11.74-11.49 29.54 29.54 0 0 0 -10.94-2.8 30.52 30.52 0 0 0 -17.5 4.47z" fill="#f5b493"/><path d="m203.54 213.19c-6.14-.83-18.27-1.39-27.95 6-6.69 5.14-9.26 11.83-14.1 24.43a140.23 140.23 0 0 0 -7.3 26.44c-4.61 26.39-8 45 2 55.65 3.6 3.81 8 5.78 28.46 8.81a504 504 0 0 0 56.15 5.11l8.06-19.88-67.49-19.47q3.87-27 7.73-54a35.54 35.54 0 0 0 9.07-9.66 37.45 37.45 0 0 0 5.37-23.43z" fill="#e73f46"/><path d="m232.75 211.81a84.91 84.91 0 0 1 9.19-1c2.6-.14 11-.61 15.11.5 10.14 2.69 12.16 19.33 21.95 47.69 3.69 10.71 7.16 19.23 9.4 24.51l53.13 12.49q-2.34 10.24-4.7 20.48c-6.79.7-16.66 1.56-28.62 2-16.56.63-24.83.95-29.89-.67-21.18-6.81-27.19-43.81-28.78-56.1q-8.4-24.96-16.79-49.9z" fill="#e73f46"/><path d="m273.88 363.05s60.69 20.31 65.65 27.47-2.33 91.48-2.33 91.48h11.32s1.14-82.86-.44-91.48-74.2-27.47-74.2-27.47z" fill="#1573d8"/><path d="m254.14 369.76c27.3 14.4 36.34 27.06 39.29 36.32.85 2.65 3 10.75 8.4 12.08 5.67 1.41 10.44-5.81 13-4.3 3 1.74-8.08 12.16-6 30.49 1.26 11.33-8.55 37.65-8.55 37.65l-8.45-37.65z" fill="#1573d8"/><path d="m302.22 460.64c0-57.51-42.07-104.13-94-104.13s-94 46.62-94 104.13a115.29 115.29 0 0 0 2 21.36h184a115.29 115.29 0 0 0 2-21.36z" fill="#40c2d6"/><path d="m290.14 460.64c0-50.76-36.74-92.05-81.9-92.05s-81.89 41.29-81.89 92.05a103.24 103.24 0 0 0 2.23 21.36h159.33a103.24 103.24 0 0 0 2.23-21.36z" fill="#86ebf9"/><path d="m228.7 460.64c0-17.52-10.8-30.61-20.46-30.61s-20.45 13.09-20.45 30.61a37.94 37.94 0 0 0 6.26 21.36h28.39a38 38 0 0 0 6.26-21.36z" fill="#40c2d6"/><path d="m195.18 364.11 9.36 80.24h3.7l3.72-80.24z" fill="#40c2d6"/><path d="m200.99 451.41-57.03-58.2-10.43 14.31 62.03 47.57z" fill="#40c2d6"/><path d="m215.66 451.73 53.86-61.21 10.42 15.29-59.74 48.04z" fill="#40c2d6"/><path d="m217.67 467.85 80.28-7.21v15.44l-80.28-2.52z" fill="#40c2d6"/><path d="m137.48 482 62.73-9.11-1.68-5.04-79.23 3.36 1.91 10.79h7.37z" fill="#40c2d6"/><path d="m188 227.67v26.33l-7.28 42.4s-12 2.65-21 16.54c0 0 13.87-9.19 23.58-9.23s54.27 12.81 54.27 12.81-48.22-18.65-48.57-20.11 4.36-43.1 4.36-43.1z" fill="#cc3745"/><path d="m259.49 225.65-2.5 23.3 19.1 67.42-14.11-67.42z" fill="#cc3745"/><path d="m289.57 284.2a16.49 16.49 0 0 0 -7.72 3.86c-5.66 5.15-7.14 14.42-4 23.59a54.11 54.11 0 0 1 11.68-27.45z" fill="#cc3745"/><path d="m254.16 158.37c-1.18-6.45-2.95-10.3-3.58-14.53-1.18-7.86-1.11-13.81-3.84-19.12a19.93 19.93 0 0 0 -4.92-6.12 36.34 36.34 0 0 0 -8.32-6.45c-11.24-7.29-29.16-6.5-40.74 3.25-13.35 11.24-12.17 29.21-11.87 33.67 1.37 20.84 16.64 34 23.25 38.8a53.54 53.54 0 0 0 11.88 7.7c4.78 2.2 17.58 8.1 26.21 1.83 2.25-1.64 5.25-5.61 8.54-14.67 4.23-11.73 4.57-17.92 3.39-24.36z" fill="#f5b493"/><path d="m236.91 169.07a.49.49 0 0 1 -.42-.23.5.5 0 0 1 .15-.69c2-1.3 3.06-2.54 3-3.69 0-1-.84-1.66-1.95-2.62-.43-.38-.93-.81-1.41-1.3a18 18 0 0 1 -4.59-8.69.5.5 0 0 1 .37-.6.49.49 0 0 1 .6.37 17.19 17.19 0 0 0 4.32 8.22c.46.46.92.86 1.37 1.24 1.2 1 2.24 1.94 2.29 3.34s-1.12 3.07-3.48 4.57a.45.45 0 0 1 -.25.08z" fill="#2d1929"/><path d="m243.84 155.81c-1.52.21-3-1.52-3.35-3.87s.64-4.42 2.15-4.64 3 1.52 3.35 3.87-.63 4.43-2.15 4.64z" fill="#2d1929"/><path d="m220.18 159.14c-1.52.21-3-1.52-3.35-3.87s.63-4.42 2.15-4.64 3 1.52 3.35 3.87-.63 4.42-2.15 4.64z" fill="#2d1929"/><path d="m238.26 179.75c-3.12 0-7.61-.79-10.61-4.74a.51.51 0 0 1 .1-.7.5.5 0 0 1 .7.09c4.51 5.95 13.05 4 13.14 4a.5.5 0 1 1 .22 1 17.24 17.24 0 0 1 -3.55.35z" fill="#2d1929"/><path d="m245.59 140.58a1 1 0 0 1 -.72-.31c-4.74-4.89-10.83-2.23-11.09-2.11a1 1 0 0 1 -.83-1.83c.08 0 7.62-3.37 13.35 2.55a1 1 0 0 1 -.71 1.7z" fill="#2d1929"/><path d="m210.72 144.77a1.05 1.05 0 0 1 -.49-.13 1 1 0 0 1 -.38-1.37c4.05-7.17 12.2-5.84 12.28-5.82a1 1 0 0 1 -.34 2c-.28 0-6.85-1.09-10.2 4.84a1 1 0 0 1 -.87.48z" fill="#2d1929"/><path d="m237.58 316.53s22.95-2.78 27.82-1.44 18.55 12 20.77 16.26-3.78 2.49-3.78 2.49 3.41 3.8 2.4 5.83-6.9-2.64-6.9-2.64 3.2 4.67 1.86 6.85-8.22-5.62-8.22-5.62 2.85 4.79 1.42 6-8.49-6.19-10-6.73-10.91 3.24-15.52 3.75a12.92 12.92 0 0 1 -7.9-1.66l-5.78-.25z" fill="#f5b493"/><path d="m333.81 316.43s10.74.17 13 .59 10.24 4.7 12.33 4.2a1.07 1.07 0 0 0 .5-.28c.49-.55.1-1.64 0-2.05-.71-1.92-2-2.53-4.1-5.16-1.05-1.35-1.05-1.64-1-1.83.34-1.3 4.44-2.4 7.59-1.09 4.62 1.91 6.05 8.47 9.72 9.59a1.13 1.13 0 0 0 .94 0c1.31-.93-1.34-7.14-1.34-7.14s4.2 7.05 6 6.47-1.26-7.56-1.26-7.56 3.86 6.88 5.21 6.38-1.26-8.73-1.26-8.73 3.36 6.16 4.78 5.21-5-14.19-8.31-17-25.23-2.1-25.23-2.1l-14.18-1.13z" fill="#f5b493"/><path d="m272.16 339.45a.51.51 0 0 1 -.43-.24l-5.8-9.94a.5.5 0 0 1 .18-.68.51.51 0 0 1 .69.18l5.79 9.93a.49.49 0 0 1 -.18.68.43.43 0 0 1 -.25.07z" fill="#2d1929"/><path d="m277.89 337.53a.49.49 0 0 1 -.4-.2l-7.24-9.52a.5.5 0 0 1 .09-.7.51.51 0 0 1 .7.1l7.24 9.52a.49.49 0 0 1 -.39.8z" fill="#2d1929"/><path d="m282.39 334.34a.51.51 0 0 1 -.36-.15l-10.87-11.5a.5.5 0 0 1 .73-.68l10.86 11.49a.5.5 0 0 1 0 .71.48.48 0 0 1 -.36.13z" fill="#2d1929"/><path d="m372 315.14a.49.49 0 0 1 -.45-.28l-4.74-9.54a.49.49 0 0 1 .22-.67.5.5 0 0 1 .67.23l4.74 9.54a.49.49 0 0 1 -.22.67.59.59 0 0 1 -.22.05z" fill="#2d1929"/><path d="m376.66 313.45a.49.49 0 0 1 -.46-.3l-3.91-9.24a.5.5 0 0 1 .92-.39l3.91 9.24a.49.49 0 0 1 -.27.65.43.43 0 0 1 -.19.04z" fill="#2d1929"/><path d="m380.14 310.3a.48.48 0 0 1 -.46-.31l-3.48-8.35a.5.5 0 0 1 .92-.38l3.48 8.35a.49.49 0 0 1 -.27.65.43.43 0 0 1 -.19.04z" fill="#2d1929"/><path d="m192.64 157.57 4.87-12.48s3.26-1.86 4-13.59 12.33-6.19 21.15-5.69 9.76-6.42 13.51-5.91 10.27 3.84 12.17 9a16.25 16.25 0 0 0 4.16-13.82c-1.51-8.31-8.5-14.22-16.33-13.59s-22.44-6.33-37.43-.65-25 12.77-26.69 30.57 2 47.47 32.08 56.43z" fill="#f4f4f4"/><path d="m196.25 155.05c-2.63-5.56-8.47-8.33-13.06-6.17s-6.17 8.42-3.55 14 8.47 8.34 13.05 6.18 6.18-8.44 3.56-14.01z" fill="#f5b493"/><path d="m192.85 163.81a4.12 4.12 0 0 1 -3.77-3.42c-.28-1.86 1.78-2.78 2.86-3.14-.82-1.43-3.26-5.21-6.29-4.89s-2.65 3.64-2.65 3.78a.51.51 0 0 1 -.45.55.5.5 0 0 1 -.55-.45c-.15-1.54.4-4.55 3.52-4.88 4.41-.47 7.46 5.72 7.59 6a.49.49 0 0 1 0 .44.56.56 0 0 1 -.35.27s-2.94.67-2.71 2.18a3.16 3.16 0 0 0 2.86 2.57.51.51 0 0 1 .46.54.5.5 0 0 1 -.52.45z" fill="#2d1929"/><path d="m236.65 171.79a4.83 4.83 0 0 0 -6.74-3.45c-2.3.89-2.35 2.7-4.22 3.64-1.08.55-2.95.89-6.24-.63a7.71 7.71 0 0 0 2.4 3.87c3.19 2.71 8.13 1.87 11.15.1a11 11 0 0 0 3.65-3.53z" fill="#f4f4f4"/><path d="m235.7 171.74a4.83 4.83 0 0 1 6.77-3.41c2.29.9 2.33 2.72 4.19 3.67 1.08.55 3 .9 6.25-.6a7.79 7.79 0 0 1 -2.43 3.86c-3.21 2.68-8.14 1.82-11.15 0a11.16 11.16 0 0 1 -3.63-3.52z" fill="#f4f4f4"/></g></svg>