<svg height="512" viewBox="0 0 512 512" width="512" xmlns="http://www.w3.org/2000/svg" xmlns:xlink="http://www.w3.org/1999/xlink"><clipPath id="clip-path"><path d="m130.77 199.99h40.32v80.13h-40.32z"/></clipPath><clipPath id="clip-path-2"><path d="m277.24 185.9h41.07v74.77h-41.07z"/></clipPath><clipPath id="clip-path-3"><path d="m79.65 282.08h29.83v41.33h-29.83z"/></clipPath><g id="Life_Insurance" data-name="Life Insurance"><path d="m215.3 166.82a317 317 0 0 0 5.23 77.54 70.36 70.36 0 0 1 -83.69 14.46q3.85-24.24 7.7-48.48z" fill="#2d1929"/><g clip-path="url(#clip-path)"><path d="m130.77 199.99h40.32v80.13h-40.32z" fill="#f5b493"/><path d="m122 236.59c2.78 2.15 19.09 14.34 39.92 10.15a46.86 46.86 0 0 0 20.54-9.92l2.07-26.13h-63.9q.64 12.95 1.37 25.9z" fill="#eba284"/></g><g clip-path="url(#clip-path-2)"><path d="m277.24 185.9h41.07v74.77h-41.07z" fill="#e39c76"/><path d="m314.63 198.3s-8.54 33.7-45.23 39.21v-31.61z" fill="#d48f6e"/></g><path d="m288.21 240.3a151.25 151.25 0 0 0 -56.65 12.37 145.27 145.27 0 0 0 -21.56 11.69c-17 10.9-44.4 26.71-89.84 48q-3.39 14.14-6.77 28.3c81.14 22.26 163.21-14.66 174.82-100.36z" fill="#917eec"/><path d="m226.47 285.27c-4.37-7.49-15.26-18.15-31.7-23.1a57.74 57.74 0 0 0 -24.12-1.81 118.22 118.22 0 0 0 1.58 15s4.38 26.22 22.44 52.56c33.89 49.42 94.74 68.08 94.74 68.08l.19-36.92s-46.97-46.08-63.13-73.81z" fill="#e73f46"/><path d="m83.42 271.06c-22.17 15.65-31 37.42-36.19 64.06-8.31 43-14.4 74.51 3.16 87.23 15.81 11.47 45.38 3.76 71.92-15.23q-19.45-68.02-38.89-136.06z" fill="#e73f46"/><path d="m119.64 170.56c-3.32-8.21-11.49-12.65-18.25-9.92s-9.55 11.6-6.23 19.81 11.49 12.66 18.24 9.92 9.6-11.6 6.24-19.81z" fill="#f5b493"/><path d="m202.91 156.15s-.9-43.32-31.58-54.28c-.28-.06-.55-.08-.82-.13-20.23-7.78-35-.12-36.28.13a38.68 38.68 0 0 0 -13.4 8.21c-17.56 16.45-18.19 46.06-18.19 46.06a33.1 33.1 0 0 0 -.25 5c.28 8.26 5.26 27.46 6.33 34 6.29 20.71 22.47 46.12 44.47 45 26.7-1.59 37.44-34.22 40.51-44.14 3.29-10.65 6-21 6.42-22.57a32.32 32.32 0 0 0 1.16-11.14c.56-2.08 1.1-4.21 1.63-6.14z" fill="#f5b493"/><g fill="#2d1929"><path d="m107 184.65a.49.49 0 0 1 -.32-.12c-.3-.24-2.89-2.48-2.77-4.56.1-1.83 2-2.64 2.85-2.92-.28-4.63-2.75-11.6-7.32-10.69a.51.51 0 0 1 -.59-.39.5.5 0 0 1 .4-.59c5.41-1.07 8.33 6.54 8.53 12a.5.5 0 0 1 -.39.51s-2.39.56-2.48 2.11c-.08 1.34 1.72 3.16 2.41 3.75a.5.5 0 0 1 -.32.9z"/><path d="m150.89 196.6c-3.93-1-6.22-2.56-6.83-4.65-1.35-4.65 6.44-7.27 5.29-21.61a.5.5 0 0 1 1-.08c1.16 14.58-6.48 17.44-5.33 21.42.5 1.72 2.56 3 6.11 3.95a.5.5 0 0 1 -.24.97z"/><path d="m135.09 173.35c0 3.51-1.83 6.35-4.1 6.36s-4.11-2.84-4.11-6.35 1.83-6.36 4.12-6.36 4.09 2.85 4.09 6.35z"/><path d="m142 211.08a.5.5 0 0 1 .62-.79 14.12 14.12 0 0 0 17.53 0 .5.5 0 0 1 .7.09.5.5 0 0 1 -.08.7 15.14 15.14 0 0 1 -18.77 0z"/><path d="m120.59 157.51a1 1 0 0 1 -.66-1.76c.09-.08 9.17-7.72 19.45-1.84a1 1 0 1 1 -1 1.73c-9-5.16-16.83 1.35-17.15 1.63a1 1 0 0 1 -.64.24z"/><path d="m175.19 173.36c0 3.51-1.84 6.35-4.11 6.35s-4.1-2.85-4.1-6.36 1.84-6.34 4.11-6.34 4.11 2.85 4.1 6.35z"/><path d="m181.49 157.51a1 1 0 0 1 -.65-.24c-.33-.28-8.11-6.79-17.16-1.63a1 1 0 0 1 -1-1.73c10.29-5.88 19.36 1.76 19.45 1.84a1 1 0 0 1 -.64 1.76z"/></g><path d="m81.59 271.86c-11.7 11.25-11 27-10.11 41.85 1.87 31 5.3 71.63 12 120.49h128.04c2.2-20.8 4.49-47.49 5.77-78.64 2.66-64.16-1.75-78.67-13.71-87.5-10.39-7.69-24.49-8.09-52.7-8.88-28.03-.8-54.51-1.54-69.29 12.68z" fill="#e73f46"/><path d="m321.58 98.19c-17.8-13.34-44.14-13-60-1.41a53.47 53.47 0 0 0 -11.66 10.15c-11 10.52-9.34 22.28-10.76 37.74-.58 6.25-2.87 12.05-4.06 21.6s-.22 18.59 7 35.44c5.57 13 10.3 18.59 13.74 20.81 13.18 8.48 31.45-1.22 38.28-4.84a78.8 78.8 0 0 0 16.79-12.29c9.3-7.56 30.6-28.14 30.89-58.81.02-6.58.27-33.01-20.22-48.39z" fill="#e39c76"/><path d="m261 180.24c-3.51-2-5.32-4.05-5.36-6.21-.1-4.82 8-5.33 10.63-19.39a.5.5 0 0 1 .58-.41.5.5 0 0 1 .4.59c-2.63 14.31-10.7 15.07-10.61 19.19 0 1.78 1.67 3.58 4.84 5.36a.5.5 0 1 1 -.48.87z" fill="#2d1929"/><path d="m254.6 155.72c-.29 3.47-2.35 6.13-4.6 5.95s-3.83-3.16-3.54-6.63 2.35-6.13 4.6-5.95 3.83 3.16 3.54 6.63z" fill="#2d1929"/><path d="m289.57 158.65c-.29 3.47-2.35 6.13-4.59 5.94s-3.84-3.15-3.55-6.63 2.35-6.13 4.6-5.94 3.83 3.15 3.54 6.63z" fill="#2d1929"/><path d="m263.71 137.71a1 1 0 0 1 -.65-.24c-.32-.28-8.06-6.74-17-1.61a1 1 0 0 1 -1.37-.38 1 1 0 0 1 .38-1.36c10.22-5.84 19.24 1.76 19.33 1.83a1 1 0 0 1 -.69 1.76z" fill="#2d1929"/><path d="m298.51 139.76a1 1 0 0 1 -.65-.24c-7.91-6.73-17-1.62-17.05-1.57a1 1 0 0 1 -1.36-.36 1 1 0 0 1 .36-1.37c.1-.06 10.37-5.85 19.34 1.77a1 1 0 0 1 -.64 1.77z" fill="#2d1929"/><path d="m288.21 240.3s-52 8.06-59.42 29.29 0 164.61 0 164.61h136.61s17.54-136 8.31-165.54-85.5-28.36-85.5-28.36z" fill="#917eec"/><path d="m167 114.52s-31.75 36.66-56 41.63l-3.6 42.48-16.25-5s-1.84-42.63 6.46-70.11 28.62-34.83 71.08-25.26c0 0 41.53-1.72 46.61 40.5s-14.23 91.24-44.65 95.12c0 0 13.27-13.67 18.81-33s7.38-30.34 2.77-36.75-26.96-31.84-25.23-49.61z" fill="#2d1929"/><path d="m123.46 257.28c1.5 11.1 9.94 19.81 20.31 21.38 11.93 1.82 24.06-6.17 27.32-18.83-14.16-11-32.67-11.54-47.63-2.55z" fill="#f5b493"/><g clip-path="url(#clip-path-3)"><path d="m79.65 282.08h29.83v41.33h-29.83z" fill="#e39c76"/><path d="m73.61 292.66c2 1.45 14.83 10.65 29.54 6.35a29.75 29.75 0 0 0 11-6l-.51-12.91h-38.64z" fill="#d48f6e"/></g><path d="m55.17 238s.69-33.29 24.27-41.72l.63-.1a36.85 36.85 0 0 1 27.88.1 28.62 28.62 0 0 1 10.28 6.31c13.5 12.65 14 35.41 14 35.41a25.37 25.37 0 0 1 .19 3.87c-.22 6.34-4 21.11-4.87 26.16-5.75 17.39-20.62 28.56-35.08 27.74-16.45-.94-27.11-17.12-30.39-25.3-2.3-5.72-5-16.73-5.66-27.66-.42-1.74-.84-3.38-1.25-4.81z" fill="#e39c76"/><path d="m94.94 268.18c2.68-.69 4.24-1.68 4.61-3 .45-1.55-1-3-2.24-5.47a20.46 20.46 0 0 1 -1.86-11 .5.5 0 0 1 .54-.46.5.5 0 0 1 .46.54c-.88 11 5.13 13 4.06 16.64-.48 1.64-2.27 2.87-5.33 3.65a.5.5 0 0 1 -.24-.9z" fill="#2d1929"/><path d="m113.6 251.18c0 2.69-1.41 4.87-3.16 4.87s-3.15-2.19-3.15-4.88 1.42-4.88 3.16-4.88 3.16 2.19 3.15 4.89z" fill="#2d1929"/><path d="m53.64 379.2c-6.33.91-11.49 5.42-11.88 5.77a30.57 30.57 0 0 0 -7.26 11.03c-6.14 16.19 6 36.63 6.89 38.16h45.68c1.22-5.11 3.6-18.25-2.64-31.69-5.43-11.59-18.02-25.12-30.79-23.27z" fill="#cc3745"/><path d="m211.61 293.45 3.38 26c9 15.56 9.24 33.71 1.67 49.74 0 0-3.38 55.33-5.14 65h-135.6l9.21-13.7s86.17-27.49 93.25-29.37 3.69 21.85 17.54 20.62 14.77-40 14.77-40 15.69-32.28.69-49.22z" fill="#cc3745"/><path d="m82.79 251.17c0 2.69-1.41 4.88-3.16 4.88s-3.16-2.18-3.16-4.87 1.41-4.89 3.15-4.89 3.16 2.18 3.17 4.88z" fill="#2d1929"/><path d="m60.77 314.59c-6.34 9.13-2.08 17.47-7.15 66.45a156.41 156.41 0 0 0 82.84 2.54c-9.58-56.52-6.68-64.46-15-73.15-8.76-9.14-21.92-9.37-27-9.46s-24.46.38-33.69 13.62z" fill="#287eef"/><path d="m125 434.27h-31.89q1.33-19.33 2.66-38.66l35.3 1.85q-3.07 18.39-6.07 36.81z" fill="#1573d8"/><path d="m54.7 369.47a48.86 48.86 0 0 0 -1.31 20.11c.52 3.57 3 20.76 16.15 29.08 9.54 6 19.79 4.48 34.15 2.31a107.41 107.41 0 0 0 31.31-9.85q2.42 11.58 4.84 23.15l31.25-.07a186.19 186.19 0 0 0 -3.25-26.2c-1.84-9.4-2.77-14.1-4.61-17.53-3.76-7-12.4-13.83-48.46-18.46a356.75 356.75 0 0 0 -60.07-2.54z" fill="#287eef"/><path d="m148.92 381.28c-65.06 10.05-93.38-6-105 7.38-7.1 8.21-6.21 24.85 1.16 33.69 22.64 27.17 109.63-15.47 113.76-17.54q-4.95-11.76-9.92-23.53z" fill="#f5b493"/><path d="m277.24 241s5.7 19.39 20.53 17.85 20.54-16.74 20.54-16.74-23.68-11.92-41.07-1.11z" fill="#e39c76"/><path d="m277.24 232a6.11 6.11 0 0 0 -5.32 3.47 38.68 38.68 0 0 1 -4.73 6.81s2.42 31.26 8.65 34.95 18.66-18.38 18.66-18.38-15.63-9.11-17.26-26.85z" fill="#6d5fde"/><path d="m294.5 258.82s8.57 19.6 17.64 18.8 15-34.27 15-34.27a22.09 22.09 0 0 1 -3.32-8.38c-1.08-5.38-5.53-4.61-5.53-4.61s-8.36 23.07-23.79 28.46z" fill="#6d5fde"/><path d="m341.77 248.31s31.85 5.11 43.24 29.11c10.94 23.07 8.9 156.78 8.9 156.78h-43.81z" fill="#917eec"/><path d="m226.92 280.12s11.46 111.31 22.08 115.88 72.34-1.38 78.17 0-27.4 18.47-22.32 25.85 43.38 12.31 43.38 12.31h-119.44s-10.1-98.75-1.87-154.04z" fill="#6d5fde"/><path d="m360.53 283.13-8.31 39.07q2.61 56 5.23 112h7.85q-3.78-56-7.54-112z" fill="#6d5fde"/><path d="m294.5 258.82s-14.92 21.52-6.29 42.14-13.83 66.94-5.07 87 6.46 32.53 6.46 32.53l4.9-4.38s.83-22.15-6.29-31.84 3.34-46.85 6.29-64.85.87-18.82-2.59-25.79 5.86-33.84 5.86-33.84-.4-1.15-3.27-.97z" fill="#6d5fde"/><path d="m243.92 100.06s-9.24-20.31 6.61-32.93c0 0-.54 16.62 22.42 10.16s59.91 2.77 68.82 12.61 4.39 22.77 4.39 22.77 15.6 6.46 11.9 30.15-23.2 48.24-39.75 55.81c5.46-9.58 18.95-37.15 12-45.73-1.12-1.39-2.4-2.55-8.48-5.69-4.31-2.22-5.47-2.63-6.38-3.16-9.21-5.3 0-27-9-34.61-4.35-3.68-8.42-.18-23.54-2.08a88.54 88.54 0 0 1 -19.79-4.84 22 22 0 0 0 -7.38 2.12c-9.59 4.71-14.75 16.76-15.67 27.57-10.26-9.54-8.96-25.51 3.85-32.15z" fill="#efbd42"/><path d="m338.37 146.49c-6.91-2.78-15.24 1.75-18.63 10.14s-.54 17.44 6.36 20.23 15.24-1.75 18.63-10.14.54-17.44-6.36-20.23z" fill="#e39c76"/><path d="m325.33 168c.15 0 3.84-.59 4.18-4.23.24-2.47-4.31-3.21-4.35-3.22a.5.5 0 0 1 -.39-.69c.17-.39 4.07-9.55 10.41-9.26 4.42.22 5.42 4.42 5.33 6.61a.51.51 0 0 1 -.51.48.49.49 0 0 1 -.48-.51c0-.22.14-5.36-4.39-5.58-4.77-.23-8.24 6.14-9.18 8.09 1.45.34 4.82 1.44 4.56 4.18-.42 4.44-5 5.11-5.05 5.12a.5.5 0 0 1 -.13-.99z" fill="#2d1929"/><path d="m256.68 193.28 21.39-6.77c.3 8.43-5.89 14.51-11.69 14.31-3.97-.13-7.74-3.2-9.7-7.54z" fill="#2d1929"/><path d="m200.68 160.64c-6.76-2.73-14.92 1.71-18.24 9.92s-.53 17.08 6.23 19.81 14.93-1.71 18.24-9.92.53-17.08-6.23-19.81z" fill="#f5b493"/><path d="m195.06 184.65a.5.5 0 0 1 -.32-.88c.7-.59 2.49-2.4 2.41-3.74-.08-1.56-2.45-2.11-2.47-2.12a.51.51 0 0 1 -.4-.51c.21-5.48 3.13-13.1 8.54-12a.5.5 0 0 1 -.2 1c-4.57-.9-7 6-7.32 10.69.86.28 2.75 1.09 2.85 2.92.12 2.08-2.47 4.32-2.76 4.56a.52.52 0 0 1 -.33.08z" fill="#2d1929"/><path d="m61.5 246.29a27.64 27.64 0 0 0 3.69-12.57c.22-6.71 0-8.72.81-11.37 3.75-12.35 42.32-18.56 51.14-5.63 3.46 5.08 1.49 11.67 8.12 24.07a51.75 51.75 0 0 0 3.4 5.5l4.58-3.08a71.49 71.49 0 0 0 -3.08-26.34c-2.14-6.8-3.59-11.41-7.61-15.66-11-11.66-30.31-8.89-37.17-7.9-7.79 1.12-15.85 2.28-22.53 8.19-10.92 9.67-13.45 27.88-7.68 46.1z" fill="#d48f6e"/><path d="m119.17 249c2.55-6.31 8.83-9.72 14-7.63s7.34 8.92 4.79 15.23-8.83 9.73-14 7.63-7.34-8.9-4.79-15.23z" fill="#e39c76"/><path d="m128.55 259.08c.52-.44 1.87-1.8 1.81-2.78s-1.79-1.51-1.81-1.52a.5.5 0 0 1 -.39-.5c.16-4.32 2.46-10.19 6.7-9.35a.5.5 0 0 1 -.2 1c-3.39-.69-5.25 4.55-5.48 8 .71.24 2.1.9 2.18 2.32.1 1.65-1.93 3.4-2.16 3.6a.5.5 0 0 1 -.65-.77z" fill="#2d1929"/><path d="m56.88 241.39c5.2-2.09 11.47 1.32 14 7.63s.4 13.13-4.79 15.23-11.48-1.32-14-7.63-.4-13.12 4.79-15.23z" fill="#e39c76"/><path d="m60.88 259.85c-.23-.2-2.26-2-2.17-3.6.08-1.42 1.47-2.08 2.19-2.32-.24-3.47-2.09-8.7-5.48-8a.5.5 0 1 1 -.2-1c4.24-.85 6.54 5 6.7 9.35a.5.5 0 0 1 -.4.5s-1.75.41-1.81 1.52 1.29 2.34 1.81 2.78a.5.5 0 0 1 -.64.77z" fill="#2d1929"/><path d="m85.13 301.58c-5.33.95-23.87 4.95-35 20.94-5.78 8.27-7.76 17.13-8.89 22.19-1.83 8.2-3.15 14.13-.95 20.25 4.82 13.37 22.68 17.14 25.24 17.64l15.21-9.86-12.2-31.62s36.46-26.78 16.59-39.54z" fill="#287eef"/><path d="m103.25 301.58s27.42 4.19 35.05 20.94c2.88 6.33 18.62 23.41 11 41.31-6.82 16.11-26.2 19.95-28.4 20.35l-13.24-11.44 12.15-31.62s-36.43-26.78-16.56-39.54z" fill="#287eef"/><path d="m79.74 302.74s8 7.92 15.3 8.15 14.44-8.15 14.44-8.15-16.48-5.38-29.74 0z" fill="#e39c76"/><path d="m388.85 224.4c-12.15 12.83-42.55 41.69-77.85 50.53a7.5 7.5 0 0 0 -5.68 7.26v62.48c0 33.59 20.44 65.23 55.17 85.39l36.78 21.36a7.49 7.49 0 0 0 8-.3l24.35-16.69c33.79-23.15 53.13-56.39 53.13-91.31v-61a7.49 7.49 0 0 0 -5.65-7.25c-35.09-9-65.31-37.64-77.41-50.43a7.47 7.47 0 0 0 -10.84-.04z" fill="#86ebf9"/><path d="m367.05 418.11c-30.49-17.7-48.7-45.42-48.7-74.15v-58.25c32.6-9.5 60.18-33 75.93-48.94 15.67 15.8 43.07 39.22 75.48 48.81v56.84c0 30.54-17.3 59.91-47.47 80.58l-21.48 14.71z" fill="#40c2d6"/><path d="m383.08 368.18-25.24-30.38a3.83 3.83 0 0 1 2.94-6.27 3.78 3.78 0 0 1 1.81.46l22.05 11.86 40.07-37.85a3.82 3.82 0 0 1 5.72 5l-41.31 57a3.82 3.82 0 0 1 -6.04.18z" fill="#86ebf9"/><path d="m69.83 327.94q-2.77 10.51-5.54 21l15.36 21-11.4-21.83z" fill="#1573d8"/><path d="m120.61 326.84 5.85 22.56-16.98 22.01 21.59-19.89z" fill="#1573d8"/><path d="m64.92 347.88a34.37 34.37 0 0 0 -13.25 7.12s8.78-4.51 15.43-4.39z" fill="#1573d8"/><path d="m128.76 349.4s9 .78 14.87 6.78c0 0-9-3.71-15.43-3.79z" fill="#1573d8"/><path d="m127 381.6-7.45 3.46s-.31 7.46-1.79 9.41-4.22 4.57-5.52 3.92 1.54-5.34 1.54-5.34a24.53 24.53 0 0 1 -3.91 4c-1.49.95-4.69 2.56-5.82 1.9s5-7.12 5-7.12-6.11 5.82-7.17 4.93 3.44-8.07 3.44-8.07c-8.16 8.66-9.35 6.64-3.95-3.94l-4.37-.03a20.2 20.2 0 0 1 7.94-8.4l5.46-6z" fill="#e39c76"/><path d="m71 355c18.23 5.07 29.11 4.62 35.81 3.08 1.73-.4 4.75-1.23 4.89-.84.26.7-8.32 6.71-18.89 7.49-3.61.26-5.18-.25-6 .95-1.78 2.52 2.23 9 8.22 18.73l.15.25-5.59-.08-10.86-14.58z" fill="#1573d8"/><path d="m62.07 381.28 7.45 3.46s.31 7.45 1.79 9.41 4.21 4.57 5.52 3.92-1.54-5.34-1.54-5.34a24.94 24.94 0 0 0 3.91 4c1.48.95 4.69 2.55 5.81 1.9s-5-7.12-5-7.12 6.11 5.81 7.18 4.92-3.44-8.06-3.44-8.06 5.41 5.87 7 5.34-3.18-9.47-3.18-9.47a1.1 1.1 0 0 1 .07.15 19 19 0 0 0 4.66.14 20.47 20.47 0 0 0 -8-8.56l-5.45-6z" fill="#e39c76"/><path d="m52.9 383.71.19-5.42a57.16 57.16 0 0 1 13 4.84c-2.55-.13-10.57-.13-13.19.58z" fill="#1573d8"/><path d="m90 274.2 12.69-.72c-.91 3.8-4.4 6.12-7.59 5.58a6.73 6.73 0 0 1 -5.1-4.86z" fill="#2d1929"/><path d="m146.6 410.48a29.56 29.56 0 0 0 21.16-2.86l.68 3.63s3.68-3.81 3.81-6.63-2.75-3.62-2.75-3.62 3.75-3.44-.25-6.5c0 0 3-5.06-2-6.12 0 0 3.69-8.08-6.44-7.1 0 0 3.63-3.22 2.38-5.9s-8.64 4.72-23.48 7.17-1.88 28.9 6.89 27.93z" fill="#f5b493"/></g></svg>