<svg height="512" viewBox="0 0 512 512" width="512" xmlns="http://www.w3.org/2000/svg" xmlns:xlink="http://www.w3.org/1999/xlink"><clipPath id="clip-path"><path d="m217.76 225.6h43.69v75.13h-43.69z"/></clipPath><clipPath id="clip-path-2"><circle cx="217.5" cy="190.53" r="14.2"/></clipPath><clipPath id="clip-path-3"><circle cx="261.45" cy="190.53" r="14.2"/></clipPath><clipPath id="clip-path-4"><path d="m343.69 448.31c-28.14-16.34-44.95-41.92-44.95-68.44v-53.77c30.1-8.78 55.55-30.51 70.09-45.18 14.47 14.58 39.76 36.2 69.68 45.06v52.46c0 28.19-16 55.31-43.82 74.39l-19.82 13.58z"/></clipPath><clipPath id="clip-path-5"><rect height="108.53" rx="10.24" transform="matrix(.44 .898 -.898 .44 136.12 -61.18)" width="59.63" x="87.31" y="24.32"/></clipPath><g id="Travel_Insurance" data-name="Travel Insurance"><path d="m449.65 214.14c-19.18-58.14-53.65-25.8-96.88-30.14s-42.9-62.69-75.79-73.87-91 40.46-91 40.46c-5.74 13.82-16.58 45.65-6.27 81.14 17.95 61.79 85 83.13 106.67 90 25.84 8.22 70.17 22.31 111.14-1.48 36.58-21.25 64.41-68.85 52.13-106.11z" fill="#2d1929"/><circle cx="245.3" cy="126.88" fill="#efbd42" r="53.72"/><g clip-path="url(#clip-path)"><path d="m217.76 225.6h43.69v75.13h-43.69z" fill="#e39c76"/><path d="m211.88 256.76a47 47 0 0 0 56 3.23v-29.09h-56.2z" fill="#d48f6e"/></g><path d="m116.22 100.92a459 459 0 0 0 -17.22 65.47c-5.54 30.16-8.38 46.68-2.55 66.31 3.84 12.92 10.07 22.56 22 37.3a457.1 457.1 0 0 0 69.45 69l59.6-57.9a147.68 147.68 0 0 1 -108.39-61.19l6.49-120.38z" fill="#e39c76"/><path d="m293.42 172.68s-.93-44.95-32.76-56.33l-.85-.13c-21-8.07-36.29-.13-37.64.13a40 40 0 0 0 -13.91 8.53c-18.23 17.07-18.89 47.8-18.89 47.8a35.71 35.71 0 0 0 -.25 5.22c.29 8.57 5.46 28.5 6.57 35.32 6.52 21.49 23.31 47.86 46.14 46.73 27.7-1.65 38.85-35.51 42-45.8 3.42-11.06 6.2-21.79 6.66-23.42a33.72 33.72 0 0 0 1.21-11.56c.62-2.28 1.18-4.49 1.72-6.49z" fill="#e39c76"/><path d="m239.45 214.63c-4.06-1-6.44-2.65-7.06-4.81-1.41-4.83 6.67-7.52 5.48-22.43a.5.5 0 0 1 1-.08c1.21 15.14-6.73 18.09-5.52 22.23.52 1.8 2.65 3.18 6.35 4.12a.5.5 0 0 1 -.25.97z" fill="#2d1929"/><path d="m208 174.05a1 1 0 0 1 -.66-1.76c.1-.08 9.49-8 20.14-1.91a1 1 0 0 1 .38 1.36 1 1 0 0 1 -1.37.38c-9.41-5.38-17.5 1.39-17.84 1.69a1 1 0 0 1 -.65.24z" fill="#2d1929"/><path d="m271.2 174.05a1 1 0 0 1 -.65-.24c-.34-.29-8.44-7.06-17.85-1.69a1 1 0 0 1 -1-1.74c10.65-6.08 20 1.83 20.14 1.91a1 1 0 0 1 -.64 1.76z" fill="#2d1929"/><path d="m223.62 280.76c-43.74 19.28-54.31 35.51-55.27 47.15-.44 5.34-.24 26.46-.24 26.46l143.89-.53a107.9 107.9 0 0 0 .65-19.88c-.81-13.56-4.19-26.85-7.3-33-9.23-18.31-43.1-26.54-81.73-20.2z" fill="#e39c76"/><path d="m241.28 122.67s-10.71 4.59-14.28 24.26-28.49 22.14-28.49 22.14-8.39 60 19.25 81.21c0 0-43-14.49-37.59-81.21s36.11-68.2 61.08-62.79c0 0 32.17-7.87 52.17 16.72s10.2 78.94-11.21 96.27l2.79-42s-20.07-5.12-24.59-30.7-19.13-23.9-19.13-23.9z" fill="#2d1929"/><path d="m148.62 146.68c17.75 22 55.61 14.42 59.92 13.56a59.8 59.8 0 0 0 10.09-3 60.93 60.93 0 0 0 13.85-8.3c6.45-4.8 18.69-1.4 22.42-.36 24.57 6.83 27.55 24.27 47.21 28.52 23 5 50.89-11.9 50.89-11.9a157.27 157.27 0 0 1 -55.48-43.83c-4-4.58-22.2-24.16-52.56-27a80.58 80.58 0 0 0 -49 11.44 51.15 51.15 0 0 1 -53.96 28.19 37.12 37.12 0 0 0 6.62 12.68z" fill="#efbd42"/><path d="m207 187.63c-3.44-8.52-11.92-13.13-18.93-10.3s-9.91 12-6.47 20.56 11.92 13.13 18.94 10.3 9.93-12.04 6.46-20.56z" fill="#e39c76"/><path d="m193.92 202.23a.49.49 0 0 1 -.32-.12c-.12-.1-3-2.54-2.86-4.72.1-1.89 2.07-2.73 2.95-3-.29-4.83-2.85-12.07-7.62-11.13a.5.5 0 0 1 -.19-1c5.58-1.11 8.62 6.76 8.83 12.46a.51.51 0 0 1 -.39.51s-2.5.58-2.59 2.21c-.08 1.4 1.79 3.29 2.51 3.9a.5.5 0 0 1 -.32.89z" fill="#2d1929"/><path d="m291.12 177.33c-7-2.83-15.49 1.78-18.94 10.3s-.54 17.72 6.47 20.56 15.49-1.78 18.93-10.3.55-17.72-6.46-20.56z" fill="#e39c76"/><path d="m285.29 202.23a.5.5 0 0 1 -.33-.88c.73-.61 2.59-2.5 2.51-3.9-.09-1.63-2.56-2.21-2.58-2.21a.5.5 0 0 1 -.39-.51c.21-5.69 3.24-13.57 8.83-12.46a.5.5 0 0 1 -.2 1c-4.75-.94-7.32 6.28-7.61 11.13.87.28 2.85 1.12 3 3 .13 2.18-2.74 4.62-2.86 4.72a.51.51 0 0 1 -.37.11z" fill="#2d1929"/><path d="m296.54 140.37 45.24 69.51a140.61 140.61 0 0 1 -94.28 75.77l61.79 50.18a337 337 0 0 0 44-49.77c25.5-35.32 44.14-61.13 37.66-88-4-16.67-17.54-28.6-44.59-52.46a322.7 322.7 0 0 0 -38-28.85q-5.91 11.82-11.82 23.62z" fill="#e39c76"/><path d="m203.67 270.86a172.74 172.74 0 0 1 -8.76 19.07c-11.12 20.74-19.78 26.37-25.6 38.34-4.5 9.25-8.32 24.37-2.93 49.06l146.79 1.11-.73-29.33a213.28 213.28 0 0 1 -29.85-76.8l-19 7.77q-.4-5.67-.8-11.35h-46.41v6z" fill="#917eec"/><path d="m180.17 124.75a85.39 85.39 0 0 0 32 6.12c24.91-.24 36.68-12.13 62.94-11.56a88.14 88.14 0 0 1 24 3.9 62.5 62.5 0 0 0 -19-7.34c-26.09-5.3-41.5 9.84-75 10.82a118.43 118.43 0 0 1 -24.94-1.94z" fill="#d7981a"/><path d="m223.64 154.82s37.48-5.58 58.8 10.89c0 0-23.18-41.52-58.8-10.89z" fill="#d7981a"/><path d="m300.21 146s-8.13-1-13.19-10.46-23.78-7.82-25.31-11.5 15.5-2.29 15.5-2.29-9-1.46-15.1-2.15-5.17-3.46.1-4.45 12.55 0 12.55 0-9.51-2.36-13.8-2.55-4.21-3-1.61-4.11 16.4.38 16.4.38-13.75-5.33-12.57-7.74 18.17.92 26.75 3.18 21.32 14.35 21.32 14.35 6.43 20.79-11.04 27.34z" fill="#e39c76"/><path d="m231.49 224.19 20.72-1.82c-1.38 7.06-7.69 11.2-13 10.08-3.62-.77-6.62-4.07-7.72-8.26z" fill="#2d1929"/><path d="m163.88 350 6.5 131h149.5q-6-61.45-7.2-123.28a567.84 567.84 0 0 0 -148.8-7.72z" fill="#917eec"/><circle cx="217.5" cy="190.53" fill="#2d1929" r="17.13"/><circle cx="261.45" cy="190.53" fill="#2d1929" r="17.13"/><path d="m230.23 188.35h16.7v4.36h-16.7z" fill="#2d1929"/><g clip-path="url(#clip-path-2)"><path d="m231.49 167.6-26.33 37.19 2.85 2.87 24.72-34.26 1.9 1.86-24.44 33.76h1.63l26.76-31.01-2.43-7.8z" fill="#ededed"/></g><g clip-path="url(#clip-path-3)"><path d="m275.44 167.6-26.33 37.19 2.85 2.87 24.72-34.26 1.9 1.86-24.44 33.76h1.63l26.76-31.01-2.43-7.8z" fill="#ededed"/></g><path d="m196.88 286.14s-19.23 45.86-21.45 70.3 11.23 71.86 21.45 80.17 85-16.62 86-11.73-39.2 27.37-40.88 36.66 44.74 19.46 44.74 19.46h-116.36s-10.89-125.65-6.64-145.12 33.14-49.74 33.14-49.74z" fill="#6d5fde"/><path d="m363.82 269.49c-11.21 11.85-39.28 38.51-71.82 46.66a6.91 6.91 0 0 0 -5.24 6.7v57.67c0 31 18.86 60.22 50.92 78.83l34 19.71a6.89 6.89 0 0 0 7.37-.27l22.48-15.4c31.19-21.37 49-52.06 49-84.3v-56.35a6.92 6.92 0 0 0 -5.22-6.69c-32.39-8.27-60.28-34.75-71.45-46.56a6.91 6.91 0 0 0 -10.04 0z" fill="#86ebf9"/><g clip-path="url(#clip-path-4)"><path d="m420.87 308.46a209.45 209.45 0 0 1 -93.79 176.6l32.79 38.21 87.72-76 22.94-122.87-5.53-36.13z" fill="#40c2d6"/></g><g fill="#ededed"><path d="m429.11 350.62-74.9 52.82a25.82 25.82 0 0 1 -17.69 4.56l-7.77-.85a1.66 1.66 0 0 1 -.88-2.94l58.57-48c11-9 26.58-14 39.34-12.58l1.57.17a3.75 3.75 0 0 1 1.76 6.82z"/><path d="m325.33 404.92-10.33-13.6a1.77 1.77 0 0 1 1.82-2.79l30.65 7.34-15.27 10.2a5.06 5.06 0 0 1 -6.87-1.15z"/><path d="m393.19 399.13-7.37 5.81 4.14-29.08 16.99-12.93z"/><path d="m352.36 348.68-7.61 5.49 35.52 12.16 16.98-12.92z"/></g><path d="m139.12 219.92a115.36 115.36 0 0 1 -28.05 5.68s13.83 6.16 32.89.7z" fill="#d48f6e"/><path d="m341.78 209.88s21.87-1.74 33.52-8.15a49 49 0 0 1 -38.5 17.54z" fill="#d48f6e"/><g clip-path="url(#clip-path-5)"><rect fill="#86ebf9" height="108.53" rx="10.24" transform="matrix(.44 .898 -.898 .44 136.12 -61.18)" width="59.63" x="87.31" y="24.32"/><path d="m98.19-9.07h20.25v121.37h-20.25z" fill="#287eef" transform="matrix(.44 .898 -.898 .44 106.97 -68.36)"/><g fill="#ededed"><path d="m132.72 47.33a1 1 0 0 1 -.9-.56l-2.64-5.38a1 1 0 0 1 1.8-.89l2.64 5.39a1 1 0 0 1 -.9 1.44z"/><path d="m145.64 73.68a1 1 0 0 1 -.9-.56l-6.46-13.12a1 1 0 1 1 1.8-.88l6.46 13.17a1 1 0 0 1 -.9 1.39z"/><path d="m154.74 92.24a1 1 0 0 1 -.9-.56l-2.64-5.38a1 1 0 1 1 1.8-.88l2.64 5.38a1 1 0 0 1 -.9 1.44z"/></g></g><rect fill="#ededed" height="15.52" rx="2.5" transform="matrix(.44 .898 -.898 .44 142.85 -104.19)" width="38.74" x="135.63" y="54.72"/><path d="m99.16 41.92h2.43v65.97h-2.43z" fill="#ededed" transform="matrix(.44 .898 -.898 .44 123.44 -48.2)"/><path d="m92.21 68.26h2.43v41.2h-2.43z" fill="#ededed" transform="matrix(.44 .898 -.898 .44 132.07 -34.14)"/><path d="m123.41 75.64h2.43v41.2h-2.43z" fill="#ededed" transform="matrix(.44 .898 -.898 .44 156.17 -58.03)"/><path d="m144.78 114.75s5.83-12.34 5.66-18.37-7.17-21-10.91-19.71.65 16.07-1 22.86-7.34 11.33-7.34 11.33 4.51 7.75 13.59 3.89z" fill="#e39c76"/></g></svg>