<svg id="svg8" height="512" viewBox="0 0 135.46666 135.46666" width="512" xmlns="http://www.w3.org/2000/svg" xmlns:svg="http://www.w3.org/2000/svg"><clipPath id="clipPath5136"><rect id="rect5138" height="89.013" rx="7.858" width="87.501" x="-68.036" y="22.301"/></clipPath><clipPath id="clipPath3786"><path id="rect3788" d="m84.667 15.119h79.375v72.571h-79.375z" paint-order="fill markers stroke"/></clipPath><g id="layer1"><g id="g4582" transform="matrix(1.02 0 0 1.02 -11.216 .017)"><g id="g8396" transform="translate(-.568)"><path id="path10587" d="m61.257968 13.953835c-13.621359 23.592886-34.286468 4.371799-34.286468 25.13458 0 10.040171.708232 29.775827 6.831149 52.62687 3.270901 12.207155 17.916839 19.591905 28.099673 29.001345 11.426624 9.96992 25.710641 4.76272 31.042972 0 10.182836-9.40944 24.828766-16.79419 28.099666-29.001345 6.12291-22.851043 6.83165-43.276695 6.83165-52.62687 0-22.613149-21.34827-3.867207-34.58407-25.13458-5.805902-10.0561181-24.865319-10.0561181-32.034572 0z" fill="#7738c7"/><path id="path8180" d="m333.52539 74.326172c-9.66921 19.428676-26.11729 37.157568-51.1875 41.335938-57.5787 9.59645 44.95206 29.29459 70.71094 45.45703 19.84642 12.45265 2.22414-39.54884 16.41601-66.390624-12.16008-3.470139-24.45999-9.386999-35.93945-20.402344zm-164.21094 9.75c-21.18258 18.058738-43.88156 20.415658-62.9707 22.462888 21.58489 11.27466 33.96405 26.34356 33.5625 50.03516-.50508 29.7995 52.52818-4.04183 68.18555-9.59766 10.47602-3.7173-26.29784-27.78752-38.77735-62.900388z" fill="#171d8f" stroke-linecap="round" stroke-linejoin="round" stroke-width="11.339" transform="matrix(.259 0 0 .259 10.999 -.017)"/><path id="path8178" d="m65.446726 34.011694c-10.091963 17.479794-25.402588 3.239033-25.402588 18.622023 0 7.438688.524724 22.060688 5.061148 38.990855 2.423386 9.044188 13.274452 14.515488 20.818837 21.486888 8.465902 7.38664 19.048822 3.52865 22.999507 0 7.54439-6.9714 18.39544-12.4427 20.81882-21.486888 4.53643-16.930167 5.06152-32.06338 5.06152-38.990855 0-16.753913-15.816763-2.865184-25.623068-18.622023-4.30155-7.450502-18.42253-7.450502-23.734176 0z" fill="#171d8f"/><path id="path8166" d="m65.446726 26.803774c-10.091963 17.479794-25.402588 3.239033-25.402588 18.622023 0 7.438688.524724 22.060688 5.061148 38.990855 2.423386 9.044192 13.274452 14.515495 20.818837 21.486888 8.465902 7.38664 19.048822 3.52865 22.999507 0 7.54439-6.971393 18.39544-12.442696 20.81882-21.486888 4.53643-16.930167 5.06152-32.06338 5.06152-38.990855 0-16.753913-15.816763-2.865184-25.623068-18.622023-4.30155-7.450502-18.42253-7.450502-23.734176 0z" fill="#ffc517"/><path id="path8174" d="m77.214909 45.359559s-22.147254 0-26.945832 18.271485c-4.798564 18.271484 5.90594 35.066484 25.100224 37.465766 19.194284 2.39929 29.160549-13.103786 30.267909-27.499501 1.10737-14.395718-8.858901-28.23775-28.422301-28.23775z" fill="#ffac17"/><path id="path8176" d="m77.218922 38.111822s-21.722095 0-26.42856 17.920734c-4.706451 17.920732 5.792567 34.393325 24.618385 36.746552 18.825819 2.353227 28.600763-12.852241 29.686873-26.971607 1.08611-14.119367-8.688837-27.695679-27.876698-27.695679z" fill="#fff"/><g stroke-linecap="round" stroke-linejoin="round"><path id="path17879" d="m80.12791 57.638121c-1.311361-3.128555-3.196095-6.902687-11.173797-7.180922-7.977702-.278236-12.120661 10.384733-8.552113 16.222962 3.568549 5.83823 14.726225 17.421837 17.46462 18.202842 2.738396.781004 16.787446-11.038973 21.003056-21.956674 4.215604-10.917703-9.264299-15.821791-14.229264-11.0135-4.014073 3.887404-4.512502 5.725292-4.512502 5.725292z" fill="#ff4b3d" stroke-width="1.487"/><path id="path17888" d="m64.121073 67.947455c3.567415 3.427676 6.488573 5.982396 13.420432 6.788716 6.931859.806321 13.578678-4.872979 15.106177-6.365517 1.527495-1.492533-.480299 3.857117-6.13599 8.717274-5.65569 4.860152-6.437151 6.634324-9.558101 4.780126-3.120945-1.854205-9.236387-7.454731-11.311718-10.319128-2.075334-2.864403-3.632003-5.374286-1.5208-3.601471z" fill="#cf1531" stroke-width="1.487"/><path id="path17898" d="m87.585441 65.644064c-4.882061-.126344-9.612974 6.558888-4.345463 5.675202 5.267517-.883685 7.728654-5.927647 4.345463-5.675202z" fill="#cf1531" stroke-width="1.487"/><path id="path17900" d="m70.984304 52.485269c-3.975571-1.085182-8.058794 1.451025-8.938309 5.047012-.879514 3.595987 4.694951-1.095676 7.69205-1.701709 2.997094-.606033 4.192465-2.748502 1.246259-3.345303z" fill="#fff" stroke-width="1.487"/><path id="path17902" d="m87.103352 52.651355c-2.932243 1.744492-2.01163 3.467871-.25606 2.60514 1.755565-.862737 2.410403-3.500224.25606-2.60514z" fill="#fff" stroke-width="1.487"/><path id="path17904" d="m80.12791 57.638121s-3.800883 3.431553-3.593628 6.460994c.207258 3.029447-3.030244-1.497263-.934734-4.405581 2.095513-2.908313 4.528362-2.055413 4.528362-2.055413z" fill="#cf1531" stroke-width="1.487"/><path id="path12440" d="m37.806151 33.786672c-2.54838 0-3.5583-5.966636-5.36027-7.768608s-7.76861-2.811895-7.76861-5.360268 5.96664-3.558295 7.76861-5.360267 2.8119-7.7686083 5.36027-7.7686083c2.54837-.000001 3.55829 5.9666363 5.36027 7.7686083 1.80197 1.801972 7.7686 2.811894 7.7686 5.360267s-5.96663 3.558295-7.76861 5.360267c-1.80197 1.801972-2.81189 7.768609-5.36026 7.768609z" fill="#ffc517" stroke-width="7.845"/><path id="path12445" d="m27.728441 20.958969c.57918.556011 5.56012 2.200877 9.75337.09267 4.19325-2.108209 5.69911-4.563925 6.23195-4.170083.53285.393841 5.58328 2.386214 5.79179 3.660406.2085 1.274193-5.69911 3.660408-6.76481 4.216417-1.06568.556012-1.71436 2.085044-2.94222 4.841932-1.22786 2.756889-2.27038 3.96158-3.1739 2.432549s-1.7607-5.536946-3.3129-6.741635c-1.5522-1.204691-4.98093-2.316715-6.27829-3.3129-1.29736-.996187.69502-1.019354.69502-1.019354z" fill="#ffac17" stroke-width="7.845"/><path id="path12447" d="m37.157471 10.302089c-1.45953 1.390027-1.92288 5.16627-3.1044 6.023454s-4.58709 2.316713-4.51759 2.849557 6.06979-.463343 7.08914-1.807037c1.01936-1.343693 1.32053-7.7378213.53285-7.065974z" fill="#fff" stroke-width="7.845"/><path id="path12449" d="m33.849741 120.39255c-1.79291 0-2.50343-4.19781-3.77121-5.46559-1.26777-1.26777-5.46559-1.9783-5.46559-3.77121 0-1.7929 4.19782-2.50343 5.46559-3.7712 1.26778-1.26778 1.9783-5.46559 3.77121-5.46559 1.7929 0 2.50343 4.19781 3.77121 5.46559 1.26777 1.26777 5.46559 1.9783 5.46559 3.7712 0 1.79291-4.19782 2.50344-5.46559 3.77121-1.26778 1.26777-1.97831 5.46559-3.77121 5.46559z" fill="#7738c7" stroke-width="5.52"/><path id="path12451" d="m26.759591 111.36764c.40748.39118 3.9118 1.54843 6.86196.0652 2.95015-1.48322 4.0096-3.21094 4.38448-2.93385.37488.27708 3.92811 1.67882 4.0748 2.57527.14669.89646-4.0096 2.57527-4.75937 2.96645-.74976.39118-1.20614 1.46693-2.06999 3.40654-.86386 1.9396-1.59732 2.78716-2.23299 1.71141-.63567-1.07574-1.23874-3.89551-2.33079-4.74306-1.09204-.84756-3.50432-1.62992-4.41708-2.33079-.91275-.70086.48898-.71716.48898-.71716z" fill="#171d8f" stroke-width="5.52"/><path id="path12453" d="m33.393361 103.87001c-1.02685.97796-1.35283 3.63472-2.18409 4.23779s-3.22724 1.62992-3.17835 2.00481c.0489.37488 4.27039-.32599 4.98756-1.27134.71716-.94536.92905-5.44393.37488-4.97126z" fill="#fff" stroke-width="5.52"/><path id="path8360" d="m118.24243 116.81767c-2.54838 0-3.5583-5.96664-5.36027-7.76861s-7.76861-2.81189-7.76861-5.36027c0-2.54837 5.96664-3.55829 7.76861-5.360263 1.80197-1.801972 2.8119-7.768609 5.36027-7.768609 2.54837-.000001 3.55829 5.966637 5.36027 7.768609 1.80197 1.801973 7.7686 2.811893 7.7686 5.360263 0 2.54838-5.96663 3.5583-7.76861 5.36027-1.80197 1.80197-2.81189 7.76861-5.36026 7.76861z" fill="#ffc517" stroke-width="7.845"/><path id="path8362" d="m108.16472 103.98997c.57918.55601 5.56012 2.20087 9.75337.0927 4.19325-2.10821 5.69911-4.563928 6.23195-4.170086.53285.393836 5.58328 2.386216 5.79179 3.660406.2085 1.27419-5.69911 3.66041-6.76481 4.21642-1.06568.55601-1.71436 2.08504-2.94222 4.84193s-2.27038 3.96158-3.1739 2.43255-1.7607-5.53695-3.3129-6.74164-4.98093-2.31671-6.27829-3.3129c-1.29736-.99618.69502-1.01935.69502-1.01935z" fill="#ffac17" stroke-width="7.845"/><path id="path8364" d="m117.59375 93.333087c-1.45953 1.390027-1.92288 5.16627-3.1044 6.023454-1.18152.857179-4.58709 2.316709-4.51759 2.849559.0695.53284 6.06979-.46335 7.08914-1.80704 1.01936-1.343692 1.32053-7.737821.53285-7.065973z" fill="#fff" stroke-width="7.845"/><path id="path8366" d="m116.41318 23.151164c-1.1824 0-1.65097-2.768391-2.48705-3.604472-.83608-.836075-3.60448-1.304658-3.60448-2.487054 0-1.18239 2.7684-1.650973 3.60448-2.487048.83608-.836081 1.30465-3.604472 2.48705-3.604472 1.18239 0 1.65097 2.768391 2.48705 3.604472.83608.836075 3.60448 1.304658 3.60448 2.487048 0 1.182396-2.7684 1.650979-3.60448 2.487054s-1.30466 3.604472-2.48705 3.604472z" fill="#7738c7" stroke-width="3.64"/><path id="path8368" d="m111.73734 17.199376c.26872.257977 2.57977 1.021165 4.52535.043 1.94558-.97816 2.64427-2.117565 2.8915-1.934828.24723.18273 2.59053 1.107155 2.68727 1.69835.0967.591202-2.64427 1.698351-3.13873 1.956328s-.79544.967417-1.36513 2.24656c-.5697 1.279136-1.05341 1.838089-1.47262 1.128648-.41922-.709433-.81693-2.569028-1.53712-3.127974-.72019-.558953-2.31105-1.074907-2.913-1.53712-.60194-.462206.32248-.472956.32248-.472956z" fill="#171d8f" stroke-width="3.64"/><path id="path8370" d="m116.1122 12.254805c-.67719.64495-.89217 2.397042-1.44037 2.794757s-2.12831 1.074907-2.09607 1.322141c.0323.247228 2.81625-.214985 3.28922-.838429.47295-.62345.61269-3.590187.24722-3.278469z" fill="#fff" stroke-width="3.64"/></g></g></g></g></svg>